<svg width="244" height="70" viewBox="0 0 244 70" fill="none" xmlns="http://www.w3.org/2000/svg">
<g filter="url(#filter0_f_1_460)">
<rect width="203.362" height="25.9453" rx="12.9726" transform="matrix(1 0 0 -1 20.3193 46.2515)" fill="white"/>
<rect x="0.5" y="-0.5" width="202.362" height="24.9453" rx="12.4726" transform="matrix(1 0 0 -1 20.3193 45.2515)" stroke="#EE1C25"/>
</g>
<rect x="0.5" y="-0.5" width="235" height="56.0796" rx="21" transform="matrix(1 0 0 -1 4 68.0796)" fill="white" stroke="#EE1C25"/>
<rect x="37" y="27" width="29" height="28" rx="14" fill="url(#paint0_linear_1_460)"/>
<path d="M87.4165 40.2C86.3632 40.2 85.4098 39.9867 84.5565 39.56C83.7032 39.12 83.0232 38.4733 82.5165 37.62C82.0232 36.7667 81.7765 35.7 81.7765 34.42C81.7898 33.1667 82.0432 32.1 82.5365 31.22C83.0298 30.34 83.7032 29.6733 84.5565 29.22C85.4098 28.7667 86.3832 28.54 87.4765 28.54C88.5165 28.54 89.4032 28.7267 90.1365 29.1C90.8698 29.4733 91.4565 29.98 91.8965 30.62C92.3498 31.26 92.6432 31.98 92.7765 32.78H90.6765C90.5832 32.1933 90.3632 31.7333 90.0165 31.4C89.6832 31.0533 89.2898 30.8133 88.8365 30.68C88.3832 30.5333 87.9298 30.46 87.4765 30.46C86.2898 30.46 85.3765 30.7933 84.7365 31.46C84.1098 32.1267 83.7965 33.0667 83.7965 34.28C83.7965 35.5733 84.1032 36.5667 84.7165 37.26C85.3432 37.9533 86.2498 38.3 87.4365 38.3C87.9298 38.3 88.4098 38.2267 88.8765 38.08C89.3432 37.92 89.7432 37.6667 90.0765 37.32C90.4098 36.96 90.6232 36.48 90.7165 35.88H92.8365C92.6898 36.7067 92.3898 37.4467 91.9365 38.1C91.4965 38.74 90.8965 39.2533 90.1365 39.64C89.3898 40.0133 88.4832 40.2 87.4165 40.2ZM93.3877 43.82V42.24H94.6477C94.8477 42.24 95.0211 42.22 95.1677 42.18C95.3144 42.14 95.4611 42.0333 95.6077 41.86C95.7544 41.7 95.9211 41.4333 96.1077 41.06L96.6477 39.86L93.4477 31.78H95.5477L97.6477 37.76L99.9077 31.78H102.008L97.9677 41.26C97.6477 42.0067 97.3544 42.56 97.0877 42.92C96.8211 43.2933 96.5211 43.5333 96.1877 43.64C95.8677 43.76 95.4544 43.82 94.9477 43.82H93.3877ZM108.016 40.2C107.523 40.2 107.103 40.1267 106.756 39.98C106.409 39.82 106.123 39.6333 105.896 39.42C105.683 39.2067 105.523 39.0133 105.416 38.84C105.323 38.6667 105.269 38.5667 105.256 38.54H105.216L104.876 40H103.116V28.74H105.216V33.58H105.256C105.269 33.54 105.323 33.4267 105.416 33.24C105.509 33.0533 105.656 32.8467 105.856 32.62C106.069 32.3933 106.349 32.2 106.696 32.04C107.056 31.8667 107.496 31.78 108.016 31.78C109.216 31.78 110.083 32.1667 110.616 32.94C111.149 33.7133 111.416 34.7467 111.416 36.04C111.416 37.2933 111.149 38.3 110.616 39.06C110.096 39.82 109.229 40.2 108.016 40.2ZM107.356 38.48C107.903 38.48 108.323 38.3667 108.616 38.14C108.923 37.9 109.129 37.5933 109.236 37.22C109.356 36.8333 109.416 36.4333 109.416 36.02C109.416 35.6067 109.356 35.22 109.236 34.86C109.116 34.4867 108.896 34.1867 108.576 33.96C108.269 33.72 107.843 33.6 107.296 33.6C106.549 33.6 106.016 33.8333 105.696 34.3C105.389 34.7533 105.236 35.3267 105.236 36.02C105.236 36.74 105.396 37.3333 105.716 37.8C106.049 38.2533 106.596 38.48 107.356 38.48ZM116.719 40.2C115.772 40.2 114.999 40 114.399 39.6C113.812 39.1867 113.372 38.6667 113.079 38.04C112.799 37.4 112.652 36.7267 112.639 36.02C112.625 35.1933 112.779 34.46 113.099 33.82C113.432 33.1667 113.899 32.66 114.499 32.3C115.112 31.9267 115.832 31.74 116.659 31.74C117.392 31.74 118.045 31.9 118.619 32.22C119.205 32.54 119.672 32.9933 120.019 33.58C120.365 34.1533 120.545 34.8333 120.559 35.62C120.559 35.6467 120.559 35.72 120.559 35.84C120.559 35.96 120.559 36.06 120.559 36.14H114.579C114.579 36.9 114.765 37.4867 115.139 37.9C115.512 38.3 116.025 38.5 116.679 38.5C117.185 38.5 117.605 38.3733 117.939 38.12C118.285 37.8667 118.492 37.5333 118.559 37.12H120.539C120.445 37.9867 120.072 38.72 119.419 39.32C118.765 39.9067 117.865 40.2 116.719 40.2ZM114.639 35.22H118.519C118.505 35.1267 118.472 34.98 118.419 34.78C118.379 34.58 118.292 34.3733 118.159 34.16C118.039 33.9467 117.852 33.7667 117.599 33.62C117.345 33.4733 117.019 33.4 116.619 33.4C116.085 33.4 115.679 33.5133 115.399 33.74C115.132 33.9533 114.939 34.2067 114.819 34.5C114.712 34.78 114.652 35.02 114.639 35.22ZM122.217 40V31.78H124.117L124.257 34.06C124.337 33.7133 124.49 33.3667 124.717 33.02C124.957 32.66 125.284 32.3667 125.697 32.14C126.124 31.9 126.67 31.78 127.337 31.78H127.637V34.06H127.337C126.19 34.06 125.39 34.2467 124.937 34.62C124.484 34.98 124.257 35.5933 124.257 36.46V40H122.217ZM135.57 38.36H141.79V40H133.55V28.74H141.59V30.5H135.57V33.46H140.19V35.14H135.57V38.36ZM146.75 40.2C145.523 40.2 144.65 39.82 144.13 39.06C143.61 38.2867 143.35 37.28 143.35 36.04C143.35 34.7467 143.616 33.7133 144.15 32.94C144.683 32.1667 145.55 31.78 146.75 31.78C147.27 31.78 147.703 31.8667 148.05 32.04C148.41 32.2 148.69 32.3933 148.89 32.62C149.103 32.8467 149.256 33.0533 149.35 33.24C149.443 33.4267 149.496 33.54 149.51 33.58H149.55V28.74H151.65V40H149.89L149.55 38.54H149.51C149.496 38.5667 149.436 38.6667 149.33 38.84C149.236 39.0133 149.076 39.2067 148.85 39.42C148.636 39.6333 148.356 39.82 148.01 39.98C147.663 40.1267 147.243 40.2 146.75 40.2ZM147.41 38.48C148.17 38.48 148.71 38.2533 149.03 37.8C149.363 37.3333 149.53 36.74 149.53 36.02C149.53 35.3267 149.37 34.7533 149.05 34.3C148.743 33.8333 148.216 33.6 147.47 33.6C146.923 33.6 146.49 33.72 146.17 33.96C145.863 34.1867 145.65 34.4867 145.53 34.86C145.41 35.22 145.35 35.6067 145.35 36.02C145.35 36.4333 145.403 36.8333 145.51 37.22C145.63 37.5933 145.836 37.9 146.13 38.14C146.436 38.3667 146.863 38.48 147.41 38.48ZM156.207 40.2C155.487 40.2 154.927 40.06 154.527 39.78C154.127 39.5 153.834 39.14 153.647 38.7C153.474 38.26 153.367 37.8 153.327 37.32C153.287 36.8267 153.267 36.38 153.267 35.98V31.78H155.247V35.98C155.247 36.3933 155.287 36.7867 155.367 37.16C155.447 37.5333 155.614 37.8333 155.867 38.06C156.134 38.2867 156.534 38.4 157.067 38.4C157.587 38.4 157.981 38.2867 158.247 38.06C158.514 37.82 158.694 37.52 158.787 37.16C158.881 36.8 158.934 36.4267 158.947 36.04L158.967 31.78H161.047V40H159.307L158.967 38.44H158.927C158.901 38.52 158.834 38.6533 158.727 38.84C158.621 39.0267 158.461 39.2267 158.247 39.44C158.047 39.6533 157.781 39.8333 157.447 39.98C157.114 40.1267 156.701 40.2 156.207 40.2ZM166.526 40.2C165.753 40.2 165.053 40.0467 164.426 39.74C163.8 39.42 163.3 38.9533 162.926 38.34C162.553 37.7133 162.366 36.9533 162.366 36.06C162.393 35.1667 162.586 34.4 162.946 33.76C163.32 33.12 163.813 32.6267 164.426 32.28C165.053 31.9333 165.766 31.76 166.566 31.76C167.38 31.76 168.073 31.92 168.646 32.24C169.233 32.5467 169.686 32.9533 170.006 33.46C170.326 33.9533 170.506 34.4667 170.546 35H168.666C168.466 34.0133 167.786 33.52 166.626 33.52C165.906 33.52 165.346 33.74 164.946 34.18C164.56 34.62 164.366 35.1933 164.366 35.9C164.366 36.6733 164.553 37.2933 164.926 37.76C165.313 38.2133 165.88 38.44 166.626 38.44C167.133 38.44 167.573 38.3067 167.946 38.04C168.333 37.7733 168.573 37.38 168.666 36.86H170.546C170.506 37.4333 170.32 37.9733 169.986 38.48C169.666 38.9867 169.213 39.4 168.626 39.72C168.053 40.04 167.353 40.2 166.526 40.2ZM174.761 40.2C173.628 40.2 172.821 39.8133 172.341 39.04C171.861 38.2667 171.621 37.2533 171.621 36C171.621 34.7333 171.861 33.7133 172.341 32.94C172.835 32.1533 173.641 31.76 174.761 31.76C175.401 31.76 175.908 31.8733 176.281 32.1C176.655 32.3133 176.935 32.5533 177.121 32.82C177.308 33.0867 177.421 33.2867 177.461 33.42H177.501V31.78H179.601V40H177.841L177.501 38.66H177.461C177.421 38.78 177.301 38.9667 177.101 39.22C176.915 39.46 176.628 39.6867 176.241 39.9C175.868 40.1 175.375 40.2 174.761 40.2ZM175.601 38.48C176.348 38.48 176.848 38.2467 177.101 37.78C177.368 37.3 177.501 36.7133 177.501 36.02C177.501 35.2867 177.368 34.6933 177.101 34.24C176.835 33.7867 176.335 33.56 175.601 33.56C175.081 33.56 174.675 33.6733 174.381 33.9C174.101 34.1267 173.901 34.4267 173.781 34.8C173.675 35.16 173.621 35.5667 173.621 36.02C173.621 36.4733 173.675 36.8867 173.781 37.26C173.901 37.6333 174.101 37.9333 174.381 38.16C174.675 38.3733 175.081 38.48 175.601 38.48ZM183.704 40C183.05 40 182.557 39.84 182.224 39.52C181.904 39.2 181.744 38.68 181.744 37.96V33.22H180.504V31.78C180.89 31.78 181.19 31.74 181.404 31.66C181.617 31.58 181.77 31.3933 181.864 31.1C181.957 30.8067 182.004 30.3333 182.004 29.68H183.644V31.78H185.524V33.22H183.644V38.4H185.564V40H183.704ZM188.457 30.88C188.017 30.8933 187.724 30.7933 187.577 30.58C187.444 30.3533 187.377 30.0867 187.377 29.78C187.377 29.4867 187.451 29.2333 187.597 29.02C187.744 28.8067 188.031 28.7 188.457 28.7C188.871 28.7 189.144 28.8067 189.277 29.02C189.424 29.2333 189.497 29.4867 189.497 29.78C189.497 30.0867 189.424 30.3467 189.277 30.56C189.144 30.76 188.871 30.8667 188.457 30.88ZM187.417 40V31.78H189.457V40H187.417ZM195.118 40.2C194.185 40.2 193.411 40.02 192.798 39.66C192.185 39.3 191.725 38.8067 191.418 38.18C191.111 37.54 190.958 36.8133 190.958 36C190.945 34.7733 191.285 33.7667 191.978 32.98C192.685 32.18 193.731 31.78 195.118 31.78C196.465 31.78 197.485 32.1667 198.178 32.94C198.885 33.7133 199.238 34.7333 199.238 36C199.238 36.7867 199.091 37.5 198.798 38.14C198.505 38.78 198.051 39.2867 197.438 39.66C196.825 40.02 196.051 40.2 195.118 40.2ZM195.118 38.48C195.705 38.48 196.151 38.3533 196.458 38.1C196.778 37.8467 196.991 37.5267 197.098 37.14C197.205 36.74 197.258 36.34 197.258 35.94C197.258 35.5267 197.205 35.12 197.098 34.72C196.991 34.32 196.778 33.9933 196.458 33.74C196.151 33.4867 195.705 33.36 195.118 33.36C194.518 33.36 194.058 33.4933 193.738 33.76C193.431 34.0133 193.218 34.34 193.098 34.74C192.991 35.1267 192.938 35.5267 192.938 35.94C192.938 36.34 192.991 36.74 193.098 37.14C193.218 37.5267 193.431 37.8467 193.738 38.1C194.058 38.3533 194.518 38.48 195.118 38.48ZM200.672 40V31.82H202.412L202.752 33.56H202.792C202.805 33.52 202.852 33.4133 202.932 33.24C203.025 33.0533 203.172 32.8467 203.372 32.62C203.585 32.3933 203.865 32.2 204.212 32.04C204.572 31.8667 205.018 31.78 205.552 31.78C206.285 31.78 206.852 31.9267 207.252 32.22C207.652 32.5133 207.938 32.8867 208.112 33.34C208.285 33.78 208.392 34.24 208.432 34.72C208.472 35.2 208.492 35.6333 208.492 36.02V40H206.492V36C206.492 35.56 206.452 35.16 206.372 34.8C206.292 34.4267 206.118 34.1333 205.852 33.92C205.598 33.6933 205.218 33.58 204.712 33.58C204.178 33.58 203.772 33.7 203.492 33.94C203.212 34.18 203.018 34.4933 202.912 34.88C202.805 35.2533 202.752 35.6533 202.752 36.08V40H200.672ZM127.148 55H125.148V43.74H133.168V45.5H127.148V48.26H131.748V49.92H127.148V55ZM137.159 55.2C136.226 55.2 135.452 55.02 134.839 54.66C134.226 54.3 133.766 53.8067 133.459 53.18C133.152 52.54 132.999 51.8133 132.999 51C132.986 49.7733 133.326 48.7667 134.019 47.98C134.726 47.18 135.772 46.78 137.159 46.78C138.506 46.78 139.526 47.1667 140.219 47.94C140.926 48.7133 141.279 49.7333 141.279 51C141.279 51.7867 141.132 52.5 140.839 53.14C140.546 53.78 140.092 54.2867 139.479 54.66C138.866 55.02 138.092 55.2 137.159 55.2ZM137.159 53.48C137.746 53.48 138.192 53.3533 138.499 53.1C138.819 52.8467 139.032 52.5267 139.139 52.14C139.246 51.74 139.299 51.34 139.299 50.94C139.299 50.5267 139.246 50.12 139.139 49.72C139.032 49.32 138.819 48.9933 138.499 48.74C138.192 48.4867 137.746 48.36 137.159 48.36C136.559 48.36 136.099 48.4933 135.779 48.76C135.472 49.0133 135.259 49.34 135.139 49.74C135.032 50.1267 134.979 50.5267 134.979 50.94C134.979 51.34 135.032 51.74 135.139 52.14C135.259 52.5267 135.472 52.8467 135.779 53.1C136.099 53.3533 136.559 53.48 137.159 53.48ZM142.813 55V46.78H144.713L144.853 49.06C144.933 48.7133 145.086 48.3667 145.313 48.02C145.553 47.66 145.879 47.3667 146.293 47.14C146.719 46.9 147.266 46.78 147.933 46.78H148.233V49.06H147.933C146.786 49.06 145.986 49.2467 145.533 49.62C145.079 49.98 144.853 50.5933 144.853 51.46V55H142.813ZM152.33 55.2C151.61 55.2 151.05 55.06 150.65 54.78C150.25 54.5 149.957 54.14 149.77 53.7C149.597 53.26 149.49 52.8 149.45 52.32C149.41 51.8267 149.39 51.38 149.39 50.98V46.78H151.37V50.98C151.37 51.3933 151.41 51.7867 151.49 52.16C151.57 52.5333 151.737 52.8333 151.99 53.06C152.257 53.2867 152.657 53.4 153.19 53.4C153.71 53.4 154.104 53.2867 154.37 53.06C154.637 52.82 154.817 52.52 154.91 52.16C155.004 51.8 155.057 51.4267 155.07 51.04L155.09 46.78H157.17V55H155.43L155.09 53.44H155.05C155.024 53.52 154.957 53.6533 154.85 53.84C154.744 54.0267 154.584 54.2267 154.37 54.44C154.17 54.6533 153.904 54.8333 153.57 54.98C153.237 55.1267 152.824 55.2 152.33 55.2ZM158.689 55V46.78H160.469L160.489 48.56H160.529C160.543 48.5067 160.596 48.3933 160.689 48.22C160.783 48.0333 160.923 47.8333 161.109 47.62C161.296 47.3933 161.543 47.2 161.849 47.04C162.156 46.8667 162.536 46.78 162.989 46.78C163.656 46.78 164.156 46.96 164.489 47.32C164.823 47.6667 165.063 48.08 165.209 48.56H165.249C165.263 48.5067 165.316 48.3933 165.409 48.22C165.516 48.0333 165.669 47.8333 165.869 47.62C166.083 47.3933 166.349 47.2 166.669 47.04C166.989 46.8667 167.383 46.78 167.849 46.78C168.369 46.78 168.789 46.8933 169.109 47.12C169.429 47.3333 169.676 47.6133 169.849 47.96C170.036 48.2933 170.163 48.6533 170.229 49.04C170.309 49.4267 170.349 49.8 170.349 50.16C170.363 50.5067 170.369 50.7933 170.369 51.02V55H168.649V51C168.649 50.8 168.643 50.5667 168.629 50.3C168.616 50.02 168.563 49.7533 168.469 49.5C168.376 49.2333 168.223 49.0133 168.009 48.84C167.796 48.6667 167.503 48.58 167.129 48.58C166.663 48.58 166.309 48.7067 166.069 48.96C165.829 49.2 165.663 49.5133 165.569 49.9C165.476 50.2733 165.429 50.6667 165.429 51.08V55H163.709V51C163.709 50.8 163.703 50.5667 163.689 50.3C163.676 50.02 163.623 49.7533 163.529 49.5C163.436 49.2333 163.283 49.0133 163.069 48.84C162.856 48.6667 162.563 48.58 162.189 48.58C161.723 48.58 161.369 48.7067 161.129 48.96C160.889 49.2 160.723 49.5133 160.629 49.9C160.536 50.2733 160.489 50.6667 160.489 51.08V55H158.689Z" fill="#EE1C25"/>
<path d="M61.0538 38.078V34.7945C61.0538 34.7945 60.8591 33.8375 59.4731 34.0949H42.9566C42.9566 34.0949 42.1613 34.1444 42.2108 35.4809V46.0805C42.2108 46.0805 42.1976 46.8923 43.3394 47.0111H58.1531C58.1531 47.0111 59.9516 45.668 61.0571 45.7868V38.078H61.0538Z" fill="white"/>
<path d="M61.595 44.6945C63.0093 44.6945 64.1558 43.548 64.1558 42.1337C64.1558 40.7194 63.0093 39.5729 61.595 39.5729C60.1807 39.5729 59.0342 40.7194 59.0342 42.1337C59.0342 43.548 60.1807 44.6945 61.595 44.6945Z" fill="#EE1C25"/>
<path d="M46.9661 37.2464C47.5566 37.2464 48.0353 36.7677 48.0353 36.1772C48.0353 35.5867 47.5566 35.108 46.9661 35.108C46.3756 35.108 45.8969 35.5867 45.8969 36.1772C45.8969 36.7677 46.3756 37.2464 46.9661 37.2464Z" fill="#EE1C25"/>
<path d="M59.1101 41.4374C59.1101 41.4374 59.4764 39.5762 61.6577 39.5762C61.6577 39.5762 63.3803 39.5267 64.0634 41.4374L64.5254 41.6981C64.5254 41.6981 65.1557 38.2661 61.199 38.1044C61.199 38.1044 58.3577 38.4146 58.6349 41.6651L59.1101 41.4374Z" fill="#EE1C25"/>
<path d="M59.4302 43.6055H58.79C58.7207 43.6055 58.6646 43.5494 58.6646 43.4801V41.708C58.6646 41.6387 58.7207 41.5826 58.79 41.5826H59.4302C59.4995 41.5826 59.5556 41.6387 59.5556 41.708V43.4801C59.5556 43.5494 59.4995 43.6055 59.4302 43.6055ZM64.3967 43.6385H63.7565C63.6872 43.6385 63.6311 43.5824 63.6311 43.5131V41.6783C63.6311 41.609 63.6872 41.5529 63.7565 41.5529H64.3967C64.466 41.5529 64.5221 41.609 64.5221 41.6783V43.5131C64.5221 43.5824 64.466 43.6385 64.3967 43.6385ZM45.1214 39.8468H48.7811C48.7811 39.8468 48.8504 38.3486 47.4413 37.979C47.0915 37.8866 46.7252 37.8932 46.3853 38.012C45.8738 38.1869 45.194 38.6423 45.1214 39.8468Z" fill="#EE1C25"/>
<path d="M56.3711 37.1903C56.9616 37.1903 57.4403 36.7116 57.4403 36.1211C57.4403 35.5306 56.9616 35.0519 56.3711 35.0519C55.7806 35.0519 55.3019 35.5306 55.3019 36.1211C55.3019 36.7116 55.7806 37.1903 56.3711 37.1903Z" fill="#EE1C25"/>
<path d="M54.5264 39.7907H58.1861C58.1861 39.7907 58.2554 38.2925 56.8463 37.9229C56.4965 37.8305 56.1302 37.8371 55.7903 37.9559C55.2788 38.1308 54.599 38.5862 54.5264 39.7907Z" fill="#EE1C25"/>
<path d="M56.3711 43.6253C56.9616 43.6253 57.4403 43.1466 57.4403 42.5561C57.4403 41.9656 56.9616 41.4869 56.3711 41.4869C55.7806 41.4869 55.3019 41.9656 55.3019 42.5561C55.3019 43.1466 55.7806 43.6253 56.3711 43.6253Z" fill="#EE1C25"/>
<path d="M54.5264 46.2257H58.1861C58.1861 46.2257 58.2554 44.7275 56.8463 44.3579C56.4965 44.2655 56.1302 44.2721 55.7903 44.3909C55.2788 44.5658 54.599 45.0212 54.5264 46.2257Z" fill="#EE1C25"/>
<path d="M46.9661 43.6748C47.5566 43.6748 48.0353 43.1961 48.0353 42.6056C48.0353 42.0151 47.5566 41.5364 46.9661 41.5364C46.3756 41.5364 45.8969 42.0151 45.8969 42.6056C45.8969 43.1961 46.3756 43.6748 46.9661 43.6748Z" fill="#EE1C25"/>
<path d="M45.1214 46.2752H48.7811C48.7811 46.2752 48.8504 44.777 47.4413 44.4074C47.0915 44.315 46.7252 44.3216 46.3853 44.4404C45.8738 44.6153 45.194 45.0707 45.1214 46.2752Z" fill="#EE1C25"/>
<path d="M61.595 44.8529C60.6776 44.8529 59.8328 44.3942 59.3279 43.6286C59.2916 43.5725 59.3081 43.4966 59.3642 43.4603C59.4203 43.424 59.4962 43.4405 59.5325 43.4966C59.9912 44.1929 60.7601 44.612 61.595 44.612C62.4266 44.612 63.1988 44.1962 63.6542 43.4966C63.6905 43.4405 63.7664 43.424 63.8225 43.4603C63.8786 43.4966 63.8951 43.5725 63.8588 43.6286C63.3572 44.3942 62.5124 44.8529 61.595 44.8529ZM64.0766 41.5892C64.0205 41.5892 63.9974 41.5826 63.9842 41.5298C63.7037 40.4441 62.7236 39.6851 61.5983 39.6851C60.473 39.6851 59.4929 40.4441 59.2124 41.5298C59.1959 41.5958 59.1266 41.6189 59.0606 41.6024C58.9946 41.5859 58.9583 41.5364 58.9748 41.4704C59.2817 40.2758 60.3608 39.4409 61.5983 39.4409C62.8358 39.4409 63.9149 40.2758 64.2218 41.4704C64.2383 41.5364 64.1855 41.5628 64.1195 41.5793C64.1063 41.5793 64.0865 41.5892 64.0766 41.5892Z" fill="#EE1C25"/>
<path d="M59.1167 43.8068C58.7933 43.8068 58.526 43.5428 58.526 43.2161V41.9588C58.526 41.6354 58.79 41.3681 59.1167 41.3681C59.4434 41.3681 59.7074 41.6321 59.7074 41.9588V43.2161C59.7041 43.5428 59.4401 43.8068 59.1167 43.8068ZM59.1167 41.6189C58.9286 41.6189 58.7735 41.774 58.7735 41.9621V43.2194C58.7735 43.4075 58.9286 43.5626 59.1167 43.5626C59.3048 43.5626 59.4599 43.4075 59.4599 43.2194V41.9621C59.4599 41.774 59.3048 41.6189 59.1167 41.6189Z" fill="#EE1C25"/>
<path d="M64.5419 43.3415C64.4726 43.3415 64.4198 43.2854 64.4198 43.2194V40.883C64.4198 40.1768 64.1261 39.5102 63.5948 39.0086C63.0602 38.507 62.3507 38.2298 61.595 38.2298C60.0374 38.2298 58.7702 39.4211 58.7702 40.883V43.2194C58.7702 43.2887 58.7141 43.3415 58.6481 43.3415C58.5821 43.3415 58.526 43.2854 58.526 43.2194V40.883C58.526 39.2858 59.9021 37.9856 61.595 37.9856C62.4134 37.9856 63.1823 38.2859 63.7631 38.8337C64.3439 39.3815 64.664 40.1108 64.664 40.8863V43.2227C64.664 43.2854 64.6112 43.3415 64.5419 43.3415Z" fill="#EE1C25"/>
<path d="M58.1729 47.1299H43.1975C42.6068 47.1299 42.125 46.6481 42.125 46.0574V35.0486C42.125 34.4546 42.6068 33.9728 43.1975 33.9728H60.1199C60.7106 33.9728 61.1924 34.4546 61.1924 35.0486V38.1044C61.1924 38.1737 61.1363 38.2265 61.0703 38.2265C61.0043 38.2265 60.9482 38.1704 60.9482 38.1044V35.0486C60.9482 34.5899 60.5753 34.2203 60.1199 34.2203H43.1975C42.7421 34.2203 42.3692 34.5932 42.3692 35.0486V46.0574C42.3692 46.5128 42.7421 46.8857 43.1975 46.8857H58.1729C58.2422 46.8857 58.295 46.9418 58.295 47.0078C58.295 47.0738 58.2422 47.1299 58.1729 47.1299Z" fill="#EE1C25"/>
<path d="M51.662 47.1068C51.5927 47.1068 51.5399 47.0507 51.5399 46.9847V34.1213C51.5399 34.0553 51.596 33.9992 51.662 33.9992C51.728 33.9992 51.7841 34.0553 51.7841 34.1213V46.9847C51.7841 47.0507 51.728 47.1068 51.662 47.1068Z" fill="#EE1C25"/>
<path d="M58.6151 40.6751H42.2471C42.1778 40.6751 42.1547 40.619 42.1547 40.553C42.1547 40.487 42.1811 40.4309 42.2471 40.4309H58.6151C58.6844 40.4309 58.7372 40.487 58.7372 40.553C58.7372 40.619 58.6811 40.6751 58.6151 40.6751ZM46.9661 37.352C46.316 37.352 45.7913 36.824 45.7913 36.1772C45.7913 35.5304 46.3193 35.0024 46.9661 35.0024C47.6129 35.0024 48.1409 35.5304 48.1409 36.1772C48.1409 36.824 47.6129 37.352 46.9661 37.352ZM46.9661 35.2433C46.4513 35.2433 46.0355 35.6624 46.0355 36.1739C46.0355 36.6887 46.4546 37.1045 46.9661 37.1045C47.4776 37.1045 47.8967 36.6854 47.8967 36.1739C47.8967 35.6624 47.4776 35.2433 46.9661 35.2433ZM48.7811 39.8468C48.7118 39.8468 48.659 39.7907 48.659 39.7247C48.659 38.7908 47.9 38.0318 46.9661 38.0318C46.0322 38.0318 45.2732 38.7908 45.2732 39.7247C45.2732 39.794 45.2171 39.8468 45.1511 39.8468C45.0851 39.8468 45.029 39.7907 45.029 39.7247C45.029 38.6555 45.9002 37.7876 46.9661 37.7876C48.0353 37.7876 48.9032 38.6588 48.9032 39.7247C48.9032 39.7907 48.8504 39.8468 48.7811 39.8468ZM46.9661 43.7771C46.316 43.7771 45.7913 43.2491 45.7913 42.6023C45.7913 41.9522 46.3193 41.4275 46.9661 41.4275C47.6129 41.4275 48.1409 41.9555 48.1409 42.6023C48.1409 43.2491 47.6129 43.7771 46.9661 43.7771ZM46.9661 41.6717C46.4513 41.6717 46.0355 42.0908 46.0355 42.6023C46.0355 43.1171 46.4546 43.5329 46.9661 43.5329C47.4776 43.5329 47.8967 43.1138 47.8967 42.6023C47.8967 42.0875 47.4776 41.6717 46.9661 41.6717ZM48.7811 46.2719C48.7118 46.2719 48.659 46.2158 48.659 46.1498C48.659 45.2159 47.9 44.4569 46.9661 44.4569C46.0322 44.4569 45.2732 45.2159 45.2732 46.1498C45.2732 46.2191 45.2171 46.2719 45.1511 46.2719C45.0851 46.2719 45.029 46.2158 45.029 46.1498C45.029 45.0806 45.9002 44.2127 46.9661 44.2127C48.0353 44.2127 48.9032 45.0839 48.9032 46.1498C48.9032 46.2158 48.8504 46.2719 48.7811 46.2719ZM56.3579 37.2959C55.7078 37.2959 55.1831 36.7679 55.1831 36.1211C55.1831 35.4743 55.7111 34.9463 56.3579 34.9463C57.0047 34.9463 57.5327 35.4743 57.5327 36.1211C57.5327 36.7679 57.0047 37.2959 56.3579 37.2959ZM56.3579 35.1872C55.8431 35.1872 55.4273 35.6063 55.4273 36.1178C55.4273 36.6293 55.8464 37.0484 56.3579 37.0484C56.8727 37.0484 57.2885 36.6293 57.2885 36.1178C57.2885 35.6063 56.8694 35.1872 56.3579 35.1872ZM58.1729 39.7907C58.1036 39.7907 58.0508 39.7346 58.0508 39.6686C58.0508 38.7347 57.2918 37.9757 56.3579 37.9757C55.424 37.9757 54.665 38.7347 54.665 39.6686C54.665 39.7379 54.6089 39.7907 54.5429 39.7907C54.4769 39.7907 54.4208 39.7346 54.4208 39.6686C54.4208 38.5994 55.292 37.7315 56.3579 37.7315C57.4271 37.7315 58.295 38.6027 58.295 39.6686C58.295 39.7346 58.2422 39.7907 58.1729 39.7907ZM56.3579 43.721C55.7078 43.721 55.1831 43.193 55.1831 42.5462C55.1831 41.8961 55.7111 41.3714 56.3579 41.3714C57.0047 41.3714 57.5327 41.8994 57.5327 42.5462C57.5327 43.193 57.0047 43.721 56.3579 43.721ZM56.3579 41.6156C55.8431 41.6156 55.4273 42.0347 55.4273 42.5462C55.4273 43.061 55.8464 43.4768 56.3579 43.4768C56.8727 43.4768 57.2885 43.0577 57.2885 42.5462C57.2885 42.0314 56.8694 41.6156 56.3579 41.6156ZM58.1729 46.2158C58.1036 46.2158 58.0508 46.1597 58.0508 46.0937C58.0508 45.1598 57.2918 44.4008 56.3579 44.4008C55.424 44.4008 54.665 45.1598 54.665 46.0937C54.665 46.163 54.6089 46.2158 54.5429 46.2158C54.4769 46.2158 54.4208 46.1597 54.4208 46.0937C54.4208 45.0245 55.292 44.1566 56.3579 44.1566C57.4271 44.1566 58.295 45.0278 58.295 46.0937C58.295 46.163 58.2422 46.2158 58.1729 46.2158ZM53.8367 48.7337H49.484C49.4147 48.7337 49.3619 48.6776 49.3619 48.6116V47.0078C49.3619 46.9385 49.418 46.8857 49.484 46.8857H53.8367C53.906 46.8857 53.9588 46.9418 53.9588 47.0078V48.6116C53.9588 48.6809 53.906 48.7337 53.8367 48.7337ZM49.6061 48.4895H53.7146V47.1299H49.6061V48.4895Z" fill="#EE1C25"/>
<path d="M54.9686 48.7337H48.3521C48.2828 48.7337 48.23 48.6776 48.23 48.6116C48.23 48.5456 48.2861 48.4895 48.3521 48.4895H54.9686C55.0379 48.4895 55.0907 48.5456 55.0907 48.6116C55.0907 48.6776 55.0379 48.7337 54.9686 48.7337Z" fill="#EE1C25"/>
<defs>
<filter id="filter0_f_1_460" x="0.31926" y="0.306152" width="243.362" height="65.9453" filterUnits="userSpaceOnUse" color-interpolation-filters="sRGB">
<feFlood flood-opacity="0" result="BackgroundImageFix"/>
<feBlend mode="normal" in="SourceGraphic" in2="BackgroundImageFix" result="shape"/>
<feGaussianBlur stdDeviation="10" result="effect1_foregroundBlur_1_460"/>
</filter>
<linearGradient id="paint0_linear_1_460" x1="37" y1="40.6744" x2="66" y2="40.6744" gradientUnits="userSpaceOnUse">
<stop stop-color="#EE1C25"/>
<stop offset="1" stop-color="#EE1C25"/>
</linearGradient>
</defs>
</svg>
