<svg width="285" height="70" viewBox="0 0 285 70" fill="none" xmlns="http://www.w3.org/2000/svg">
<g filter="url(#filter0_f_1_461)">
<rect width="243.862" height="25.9453" rx="12.9726" transform="matrix(1 0 0 -1 20.5693 46.2515)" fill="white"/>
<rect x="0.5" y="-0.5" width="242.862" height="24.9453" rx="12.4726" transform="matrix(1 0 0 -1 20.5693 45.2515)" stroke="#EE1C25"/>
</g>
<rect x="0.5" y="-0.5" width="282" height="56.0796" rx="21" transform="matrix(1 0 0 -1 1 68.0796)" fill="white" stroke="#EE1C25"/>
<rect x="19" y="28" width="28" height="27" rx="13.5" fill="url(#paint0_linear_1_461)"/>
<path d="M68.2425 39H66.2025V27.74H70.7225C71.9758 27.74 72.9492 28.0533 73.6425 28.68C74.3358 29.3067 74.6825 30.2533 74.6825 31.52C74.6825 32.6267 74.3225 33.4933 73.6025 34.12C72.8958 34.7467 71.9358 35.06 70.7225 35.06H68.2425V39ZM70.4425 29.4H68.2425V33.56H70.4425C71.1625 33.56 71.7425 33.3867 72.1825 33.04C72.6225 32.6933 72.8425 32.1733 72.8425 31.48C72.8425 30.7733 72.6225 30.2533 72.1825 29.92C71.7558 29.5733 71.1758 29.4 70.4425 29.4ZM75.8634 39V30.78H77.7634L77.9034 33.06C77.9834 32.7133 78.1368 32.3667 78.3634 32.02C78.6034 31.66 78.9301 31.3667 79.3434 31.14C79.7701 30.9 80.3168 30.78 80.9834 30.78H81.2834V33.06H80.9834C79.8368 33.06 79.0368 33.2467 78.5834 33.62C78.1301 33.98 77.9034 34.5933 77.9034 35.46V39H75.8634ZM86.3427 39.2C85.4093 39.2 84.636 39.02 84.0227 38.66C83.4093 38.3 82.9493 37.8067 82.6427 37.18C82.336 36.54 82.1827 35.8133 82.1827 35C82.1693 33.7733 82.5093 32.7667 83.2027 31.98C83.9093 31.18 84.956 30.78 86.3427 30.78C87.6893 30.78 88.7093 31.1667 89.4027 31.94C90.1093 32.7133 90.4627 33.7333 90.4627 35C90.4627 35.7867 90.316 36.5 90.0227 37.14C89.7293 37.78 89.276 38.2867 88.6627 38.66C88.0493 39.02 87.276 39.2 86.3427 39.2ZM86.3427 37.48C86.9293 37.48 87.376 37.3533 87.6827 37.1C88.0027 36.8467 88.216 36.5267 88.3227 36.14C88.4293 35.74 88.4827 35.34 88.4827 34.94C88.4827 34.5267 88.4293 34.12 88.3227 33.72C88.216 33.32 88.0027 32.9933 87.6827 32.74C87.376 32.4867 86.9293 32.36 86.3427 32.36C85.7427 32.36 85.2827 32.4933 84.9627 32.76C84.656 33.0133 84.4427 33.34 84.3227 33.74C84.216 34.1267 84.1627 34.5267 84.1627 34.94C84.1627 35.34 84.216 35.74 84.3227 36.14C84.4427 36.5267 84.656 36.8467 84.9627 37.1C85.2827 37.3533 85.7427 37.48 86.3427 37.48ZM94.1963 42.66V40.74H97.7963V37.54H97.7563C97.7429 37.5667 97.6829 37.6667 97.5763 37.84C97.4829 38.0133 97.3296 38.2067 97.1163 38.42C96.9029 38.6333 96.6229 38.82 96.2763 38.98C95.9429 39.1267 95.5229 39.2 95.0163 39.2C93.8029 39.2 92.9296 38.8133 92.3963 38.04C91.8629 37.2667 91.5963 36.26 91.5963 35.02C91.5963 33.7267 91.8629 32.7 92.3963 31.94C92.9429 31.1667 93.8163 30.78 95.0163 30.78C95.5496 30.78 95.9896 30.8667 96.3363 31.04C96.6829 31.2 96.9563 31.3933 97.1563 31.62C97.3563 31.8467 97.4963 32.0533 97.5763 32.24C97.6696 32.4267 97.7229 32.54 97.7363 32.58H97.7763L97.7963 30.78H99.8963V39.7C99.8963 40.7933 99.6763 41.56 99.2363 42C98.8096 42.44 98.1429 42.66 97.2363 42.66H94.1963ZM95.6563 37.48C96.4029 37.48 96.9429 37.2533 97.2763 36.8C97.6096 36.3333 97.7763 35.74 97.7763 35.02C97.7763 34.3267 97.6163 33.7533 97.2963 33.3C96.9763 32.8333 96.4429 32.6 95.6963 32.6C95.1496 32.6 94.7229 32.72 94.4163 32.96C94.1096 33.1867 93.8896 33.4867 93.7563 33.86C93.6363 34.22 93.5763 34.6067 93.5763 35.02C93.5763 35.4333 93.6296 35.8333 93.7363 36.22C93.8563 36.5933 94.0629 36.9 94.3563 37.14C94.6629 37.3667 95.0963 37.48 95.6563 37.48ZM101.488 39V30.78H103.388L103.528 33.06C103.608 32.7133 103.762 32.3667 103.988 32.02C104.228 31.66 104.555 31.3667 104.968 31.14C105.395 30.9 105.942 30.78 106.608 30.78H106.908V33.06H106.608C105.462 33.06 104.662 33.2467 104.208 33.62C103.755 33.98 103.528 34.5933 103.528 35.46V39H101.488ZM110.966 39.2C109.833 39.2 109.026 38.8133 108.546 38.04C108.066 37.2667 107.826 36.2533 107.826 35C107.826 33.7333 108.066 32.7133 108.546 31.94C109.04 31.1533 109.846 30.76 110.966 30.76C111.606 30.76 112.113 30.8733 112.486 31.1C112.86 31.3133 113.14 31.5533 113.326 31.82C113.513 32.0867 113.626 32.2867 113.666 32.42H113.706V30.78H115.806V39H114.046L113.706 37.66H113.666C113.626 37.78 113.506 37.9667 113.306 38.22C113.12 38.46 112.833 38.6867 112.446 38.9C112.073 39.1 111.58 39.2 110.966 39.2ZM111.806 37.48C112.553 37.48 113.053 37.2467 113.306 36.78C113.573 36.3 113.706 35.7133 113.706 35.02C113.706 34.2867 113.573 33.6933 113.306 33.24C113.04 32.7867 112.54 32.56 111.806 32.56C111.286 32.56 110.88 32.6733 110.586 32.9C110.306 33.1267 110.106 33.4267 109.986 33.8C109.88 34.16 109.826 34.5667 109.826 35.02C109.826 35.4733 109.88 35.8867 109.986 36.26C110.106 36.6333 110.306 36.9333 110.586 37.16C110.88 37.3733 111.286 37.48 111.806 37.48ZM117.209 39V30.78H118.989L119.009 32.56H119.049C119.062 32.5067 119.115 32.3933 119.209 32.22C119.302 32.0333 119.442 31.8333 119.629 31.62C119.815 31.3933 120.062 31.2 120.369 31.04C120.675 30.8667 121.055 30.78 121.509 30.78C122.175 30.78 122.675 30.96 123.009 31.32C123.342 31.6667 123.582 32.08 123.729 32.56H123.769C123.782 32.5067 123.835 32.3933 123.929 32.22C124.035 32.0333 124.189 31.8333 124.389 31.62C124.602 31.3933 124.869 31.2 125.189 31.04C125.509 30.8667 125.902 30.78 126.369 30.78C126.889 30.78 127.309 30.8933 127.629 31.12C127.949 31.3333 128.195 31.6133 128.369 31.96C128.555 32.2933 128.682 32.6533 128.749 33.04C128.829 33.4267 128.869 33.8 128.869 34.16C128.882 34.5067 128.889 34.7933 128.889 35.02V39H127.169V35C127.169 34.8 127.162 34.5667 127.149 34.3C127.135 34.02 127.082 33.7533 126.989 33.5C126.895 33.2333 126.742 33.0133 126.529 32.84C126.315 32.6667 126.022 32.58 125.649 32.58C125.182 32.58 124.829 32.7067 124.589 32.96C124.349 33.2 124.182 33.5133 124.089 33.9C123.995 34.2733 123.949 34.6667 123.949 35.08V39H122.229V35C122.229 34.8 122.222 34.5667 122.209 34.3C122.195 34.02 122.142 33.7533 122.049 33.5C121.955 33.2333 121.802 33.0133 121.589 32.84C121.375 32.6667 121.082 32.58 120.709 32.58C120.242 32.58 119.889 32.7067 119.649 32.96C119.409 33.2 119.242 33.5133 119.149 33.9C119.055 34.2733 119.009 34.6667 119.009 35.08V39H117.209ZM135.187 39V27.74H138.747L141.387 38.12H141.427L144.047 27.74H147.587V39H145.467L145.607 28.66H145.587L142.887 39H139.887L137.227 28.66H137.187L137.307 39H135.187ZM150.815 29.88C150.375 29.8933 150.082 29.7933 149.935 29.58C149.802 29.3533 149.735 29.0867 149.735 28.78C149.735 28.4867 149.808 28.2333 149.955 28.02C150.102 27.8067 150.388 27.7 150.815 27.7C151.228 27.7 151.502 27.8067 151.635 28.02C151.782 28.2333 151.855 28.4867 151.855 28.78C151.855 29.0867 151.782 29.3467 151.635 29.56C151.502 29.76 151.228 29.8667 150.815 29.88ZM149.775 39V30.78H151.815V39H149.775ZM155.735 39H153.695V27.74H155.735V34.64L159.235 30.74H161.735L158.375 34.22L161.795 39H159.355L156.935 35.7L155.735 36.94V39ZM162.66 39V30.78H164.56L164.7 33.06C164.78 32.7133 164.934 32.3667 165.16 32.02C165.4 31.66 165.727 31.3667 166.14 31.14C166.567 30.9 167.114 30.78 167.78 30.78H168.08V33.06H167.78C166.634 33.06 165.834 33.2467 165.38 33.62C164.927 33.98 164.7 34.5933 164.7 35.46V39H162.66ZM173.14 39.2C172.206 39.2 171.433 39.02 170.82 38.66C170.206 38.3 169.746 37.8067 169.44 37.18C169.133 36.54 168.98 35.8133 168.98 35C168.966 33.7733 169.306 32.7667 170 31.98C170.706 31.18 171.753 30.78 173.14 30.78C174.486 30.78 175.506 31.1667 176.2 31.94C176.906 32.7133 177.26 33.7333 177.26 35C177.26 35.7867 177.113 36.5 176.82 37.14C176.526 37.78 176.073 38.2867 175.46 38.66C174.846 39.02 174.073 39.2 173.14 39.2ZM173.14 37.48C173.726 37.48 174.173 37.3533 174.48 37.1C174.8 36.8467 175.013 36.5267 175.12 36.14C175.226 35.74 175.28 35.34 175.28 34.94C175.28 34.5267 175.226 34.12 175.12 33.72C175.013 33.32 174.8 32.9933 174.48 32.74C174.173 32.4867 173.726 32.36 173.14 32.36C172.54 32.36 172.08 32.4933 171.76 32.76C171.453 33.0133 171.24 33.34 171.12 33.74C171.013 34.1267 170.96 34.5267 170.96 34.94C170.96 35.34 171.013 35.74 171.12 36.14C171.24 36.5267 171.453 36.8467 171.76 37.1C172.08 37.3533 172.54 37.48 173.14 37.48ZM180.833 39H178.793V27.74H180.833V34.64L184.333 30.74H186.833L183.473 34.22L186.893 39H184.453L182.033 35.7L180.833 36.94V39ZM187.758 39V30.78H189.658L189.798 33.06C189.878 32.7133 190.031 32.3667 190.258 32.02C190.498 31.66 190.825 31.3667 191.238 31.14C191.665 30.9 192.211 30.78 192.878 30.78H193.178V33.06H192.878C191.731 33.06 190.931 33.2467 190.478 33.62C190.025 33.98 189.798 34.5933 189.798 35.46V39H187.758ZM198.197 39.2C197.251 39.2 196.477 39 195.877 38.6C195.291 38.1867 194.851 37.6667 194.557 37.04C194.277 36.4 194.131 35.7267 194.117 35.02C194.104 34.1933 194.257 33.46 194.577 32.82C194.911 32.1667 195.377 31.66 195.977 31.3C196.591 30.9267 197.311 30.74 198.137 30.74C198.871 30.74 199.524 30.9 200.097 31.22C200.684 31.54 201.151 31.9933 201.497 32.58C201.844 33.1533 202.024 33.8333 202.037 34.62C202.037 34.6467 202.037 34.72 202.037 34.84C202.037 34.96 202.037 35.06 202.037 35.14H196.057C196.057 35.9 196.244 36.4867 196.617 36.9C196.991 37.3 197.504 37.5 198.157 37.5C198.664 37.5 199.084 37.3733 199.417 37.12C199.764 36.8667 199.971 36.5333 200.037 36.12H202.017C201.924 36.9867 201.551 37.72 200.897 38.32C200.244 38.9067 199.344 39.2 198.197 39.2ZM196.117 34.22H199.997C199.984 34.1267 199.951 33.98 199.897 33.78C199.857 33.58 199.771 33.3733 199.637 33.16C199.517 32.9467 199.331 32.7667 199.077 32.62C198.824 32.4733 198.497 32.4 198.097 32.4C197.564 32.4 197.157 32.5133 196.877 32.74C196.611 32.9533 196.417 33.2067 196.297 33.5C196.191 33.78 196.131 34.02 196.117 34.22ZM207.095 39.2C205.869 39.2 204.995 38.82 204.475 38.06C203.955 37.2867 203.695 36.28 203.695 35.04C203.695 33.7467 203.962 32.7133 204.495 31.94C205.029 31.1667 205.895 30.78 207.095 30.78C207.615 30.78 208.049 30.8667 208.395 31.04C208.755 31.2 209.035 31.3933 209.235 31.62C209.449 31.8467 209.602 32.0533 209.695 32.24C209.789 32.4267 209.842 32.54 209.855 32.58H209.895V27.74H211.995V39H210.235L209.895 37.54H209.855C209.842 37.5667 209.782 37.6667 209.675 37.84C209.582 38.0133 209.422 38.2067 209.195 38.42C208.982 38.6333 208.702 38.82 208.355 38.98C208.009 39.1267 207.589 39.2 207.095 39.2ZM207.755 37.48C208.515 37.48 209.055 37.2533 209.375 36.8C209.709 36.3333 209.875 35.74 209.875 35.02C209.875 34.3267 209.715 33.7533 209.395 33.3C209.089 32.8333 208.562 32.6 207.815 32.6C207.269 32.6 206.835 32.72 206.515 32.96C206.209 33.1867 205.995 33.4867 205.875 33.86C205.755 34.22 205.695 34.6067 205.695 35.02C205.695 35.4333 205.749 35.8333 205.855 36.22C205.975 36.5933 206.182 36.9 206.475 37.14C206.782 37.3667 207.209 37.48 207.755 37.48ZM217.533 39.2C216.586 39.2 215.813 39 215.213 38.6C214.626 38.1867 214.186 37.6667 213.893 37.04C213.613 36.4 213.466 35.7267 213.453 35.02C213.44 34.1933 213.593 33.46 213.913 32.82C214.246 32.1667 214.713 31.66 215.313 31.3C215.926 30.9267 216.646 30.74 217.473 30.74C218.206 30.74 218.86 30.9 219.433 31.22C220.02 31.54 220.486 31.9933 220.833 32.58C221.18 33.1533 221.36 33.8333 221.373 34.62C221.373 34.6467 221.373 34.72 221.373 34.84C221.373 34.96 221.373 35.06 221.373 35.14H215.393C215.393 35.9 215.58 36.4867 215.953 36.9C216.326 37.3 216.84 37.5 217.493 37.5C218 37.5 218.42 37.3733 218.753 37.12C219.1 36.8667 219.306 36.5333 219.373 36.12H221.353C221.26 36.9867 220.886 37.72 220.233 38.32C219.58 38.9067 218.68 39.2 217.533 39.2ZM215.453 34.22H219.333C219.32 34.1267 219.286 33.98 219.233 33.78C219.193 33.58 219.106 33.3733 218.973 33.16C218.853 32.9467 218.666 32.7667 218.413 32.62C218.16 32.4733 217.833 32.4 217.433 32.4C216.9 32.4 216.493 32.5133 216.213 32.74C215.946 32.9533 215.753 33.2067 215.633 33.5C215.526 33.78 215.466 34.02 215.453 34.22ZM222.931 39V30.82H224.671L225.011 32.56H225.051C225.065 32.52 225.111 32.4133 225.191 32.24C225.285 32.0533 225.431 31.8467 225.631 31.62C225.845 31.3933 226.125 31.2 226.471 31.04C226.831 30.8667 227.278 30.78 227.811 30.78C228.545 30.78 229.111 30.9267 229.511 31.22C229.911 31.5133 230.198 31.8867 230.371 32.34C230.545 32.78 230.651 33.24 230.691 33.72C230.731 34.2 230.751 34.6333 230.751 35.02V39H228.751V35C228.751 34.56 228.711 34.16 228.631 33.8C228.551 33.4267 228.378 33.1333 228.111 32.92C227.858 32.6933 227.478 32.58 226.971 32.58C226.438 32.58 226.031 32.7 225.751 32.94C225.471 33.18 225.278 33.4933 225.171 33.88C225.065 34.2533 225.011 34.6533 225.011 35.08V39H222.931ZM235.708 39.2C235.361 39.2 234.974 39.14 234.548 39.02C234.134 38.9 233.734 38.72 233.348 38.48C232.974 38.24 232.661 37.9333 232.408 37.56C232.168 37.1733 232.048 36.72 232.048 36.2H233.928C233.928 36.2267 233.934 36.32 233.948 36.48C233.961 36.6267 234.014 36.8 234.108 37C234.214 37.1867 234.388 37.3533 234.628 37.5C234.868 37.6467 235.214 37.72 235.668 37.72C236.201 37.72 236.601 37.6267 236.868 37.44C237.134 37.24 237.268 37.0133 237.268 36.76C237.268 36.4667 237.141 36.24 236.888 36.08C236.648 35.9067 236.334 35.7667 235.948 35.66C235.561 35.5533 235.148 35.4467 234.708 35.34C234.281 35.22 233.874 35.0667 233.488 34.88C233.114 34.6933 232.808 34.44 232.568 34.12C232.328 33.7867 232.208 33.36 232.208 32.84C232.208 32.08 232.514 31.5067 233.128 31.12C233.741 30.72 234.521 30.52 235.468 30.52C236.134 30.52 236.754 30.6267 237.328 30.84C237.901 31.04 238.361 31.3667 238.708 31.82C239.054 32.26 239.228 32.84 239.228 33.56H237.348C237.361 33.1467 237.268 32.84 237.068 32.64C236.881 32.4267 236.641 32.28 236.348 32.2C236.068 32.12 235.794 32.08 235.528 32.08C235.048 32.08 234.681 32.1667 234.428 32.34C234.188 32.5 234.068 32.7133 234.068 32.98C234.068 33.2867 234.188 33.5267 234.428 33.7C234.681 33.86 235.001 33.9933 235.388 34.1C235.788 34.2067 236.201 34.32 236.628 34.44C237.068 34.5467 237.481 34.6933 237.868 34.88C238.268 35.0667 238.588 35.32 238.828 35.64C239.081 35.9467 239.208 36.36 239.208 36.88C239.208 37.6667 238.881 38.2533 238.228 38.64C237.588 39.0133 236.748 39.2 235.708 39.2ZM241.909 29.88C241.469 29.8933 241.175 29.7933 241.029 29.58C240.895 29.3533 240.829 29.0867 240.829 28.78C240.829 28.4867 240.902 28.2333 241.049 28.02C241.195 27.8067 241.482 27.7 241.909 27.7C242.322 27.7 242.595 27.8067 242.729 28.02C242.875 28.2333 242.949 28.4867 242.949 28.78C242.949 29.0867 242.875 29.3467 242.729 29.56C242.595 29.76 242.322 29.8667 241.909 29.88ZM240.869 39V30.78H242.909V39H240.869ZM247.509 39.2C246.376 39.2 245.569 38.8133 245.089 38.04C244.609 37.2667 244.369 36.2533 244.369 35C244.369 33.7333 244.609 32.7133 245.089 31.94C245.583 31.1533 246.389 30.76 247.509 30.76C248.149 30.76 248.656 30.8733 249.029 31.1C249.403 31.3133 249.683 31.5533 249.869 31.82C250.056 32.0867 250.169 32.2867 250.209 32.42H250.249V30.78H252.349V39H250.589L250.249 37.66H250.209C250.169 37.78 250.049 37.9667 249.849 38.22C249.663 38.46 249.376 38.6867 248.989 38.9C248.616 39.1 248.123 39.2 247.509 39.2ZM248.349 37.48C249.096 37.48 249.596 37.2467 249.849 36.78C250.116 36.3 250.249 35.7133 250.249 35.02C250.249 34.2867 250.116 33.6933 249.849 33.24C249.583 32.7867 249.083 32.56 248.349 32.56C247.829 32.56 247.423 32.6733 247.129 32.9C246.849 33.1267 246.649 33.4267 246.529 33.8C246.423 34.16 246.369 34.5667 246.369 35.02C246.369 35.4733 246.423 35.8867 246.529 36.26C246.649 36.6333 246.849 36.9333 247.129 37.16C247.423 37.3733 247.829 37.48 248.349 37.48ZM253.972 39V27.74H255.972V39H253.972ZM103.431 54.22C102.338 54.22 101.378 54 100.551 53.56C99.7375 53.12 99.1109 52.4733 98.6709 51.62C98.2309 50.7533 98.0242 49.6933 98.0509 48.44C98.0642 47.1733 98.3109 46.1 98.7909 45.22C99.2842 44.34 99.9575 43.6733 100.811 43.22C101.664 42.7667 102.651 42.54 103.771 42.54C105.304 42.54 106.491 42.8733 107.331 43.54C108.171 44.2067 108.731 45.1733 109.011 46.44L107.051 46.72C106.851 45.88 106.438 45.2933 105.811 44.96C105.198 44.6267 104.518 44.46 103.771 44.46C102.491 44.46 101.551 44.8067 100.951 45.5C100.364 46.1933 100.064 47.12 100.051 48.28C100.051 49.56 100.391 50.5467 101.071 51.24C101.751 51.92 102.724 52.26 103.991 52.26C104.764 52.26 105.464 52.08 106.091 51.72C106.718 51.3467 107.124 50.7533 107.311 49.94H104.831V48.44H109.231V54H107.851L107.391 52.04H107.351C107.218 52.3733 106.984 52.7067 106.651 53.04C106.331 53.3733 105.904 53.6533 105.371 53.88C104.838 54.1067 104.191 54.22 103.431 54.22ZM113.652 54.2C112.518 54.2 111.712 53.8133 111.232 53.04C110.752 52.2667 110.512 51.2533 110.512 50C110.512 48.7333 110.752 47.7133 111.232 46.94C111.725 46.1533 112.532 45.76 113.652 45.76C114.292 45.76 114.798 45.8733 115.172 46.1C115.545 46.3133 115.825 46.5533 116.012 46.82C116.198 47.0867 116.312 47.2867 116.352 47.42H116.392V45.78H118.492V54H116.732L116.392 52.66H116.352C116.312 52.78 116.192 52.9667 115.992 53.22C115.805 53.46 115.518 53.6867 115.132 53.9C114.758 54.1 114.265 54.2 113.652 54.2ZM114.492 52.48C115.238 52.48 115.738 52.2467 115.992 51.78C116.258 51.3 116.392 50.7133 116.392 50.02C116.392 49.2867 116.258 48.6933 115.992 48.24C115.725 47.7867 115.225 47.56 114.492 47.56C113.972 47.56 113.565 47.6733 113.272 47.9C112.992 48.1267 112.792 48.4267 112.672 48.8C112.565 49.16 112.512 49.5667 112.512 50.02C112.512 50.4733 112.565 50.8867 112.672 51.26C112.792 51.6333 112.992 51.9333 113.272 52.16C113.565 52.3733 113.972 52.48 114.492 52.48ZM119.894 54V45.78H121.674L121.694 47.56H121.734C121.748 47.5067 121.801 47.3933 121.894 47.22C121.988 47.0333 122.128 46.8333 122.314 46.62C122.501 46.3933 122.748 46.2 123.054 46.04C123.361 45.8667 123.741 45.78 124.194 45.78C124.861 45.78 125.361 45.96 125.694 46.32C126.028 46.6667 126.268 47.08 126.414 47.56H126.454C126.468 47.5067 126.521 47.3933 126.614 47.22C126.721 47.0333 126.874 46.8333 127.074 46.62C127.288 46.3933 127.554 46.2 127.874 46.04C128.194 45.8667 128.588 45.78 129.054 45.78C129.574 45.78 129.994 45.8933 130.314 46.12C130.634 46.3333 130.881 46.6133 131.054 46.96C131.241 47.2933 131.368 47.6533 131.434 48.04C131.514 48.4267 131.554 48.8 131.554 49.16C131.568 49.5067 131.574 49.7933 131.574 50.02V54H129.854V50C129.854 49.8 129.848 49.5667 129.834 49.3C129.821 49.02 129.768 48.7533 129.674 48.5C129.581 48.2333 129.428 48.0133 129.214 47.84C129.001 47.6667 128.708 47.58 128.334 47.58C127.868 47.58 127.514 47.7067 127.274 47.96C127.034 48.2 126.868 48.5133 126.774 48.9C126.681 49.2733 126.634 49.6667 126.634 50.08V54H124.914V50C124.914 49.8 124.908 49.5667 124.894 49.3C124.881 49.02 124.828 48.7533 124.734 48.5C124.641 48.2333 124.488 48.0133 124.274 47.84C124.061 47.6667 123.768 47.58 123.394 47.58C122.928 47.58 122.574 47.7067 122.334 47.96C122.094 48.2 121.928 48.5133 121.834 48.9C121.741 49.2733 121.694 49.6667 121.694 50.08V54H119.894ZM136.937 54.2C135.991 54.2 135.217 54 134.617 53.6C134.031 53.1867 133.591 52.6667 133.297 52.04C133.017 51.4 132.871 50.7267 132.857 50.02C132.844 49.1933 132.997 48.46 133.317 47.82C133.651 47.1667 134.117 46.66 134.717 46.3C135.331 45.9267 136.051 45.74 136.877 45.74C137.611 45.74 138.264 45.9 138.837 46.22C139.424 46.54 139.891 46.9933 140.237 47.58C140.584 48.1533 140.764 48.8333 140.777 49.62C140.777 49.6467 140.777 49.72 140.777 49.84C140.777 49.96 140.777 50.06 140.777 50.14H134.797C134.797 50.9 134.984 51.4867 135.357 51.9C135.731 52.3 136.244 52.5 136.897 52.5C137.404 52.5 137.824 52.3733 138.157 52.12C138.504 51.8667 138.711 51.5333 138.777 51.12H140.757C140.664 51.9867 140.291 52.72 139.637 53.32C138.984 53.9067 138.084 54.2 136.937 54.2ZM134.857 49.22H138.737C138.724 49.1267 138.691 48.98 138.637 48.78C138.597 48.58 138.511 48.3733 138.377 48.16C138.257 47.9467 138.071 47.7667 137.817 47.62C137.564 47.4733 137.237 47.4 136.837 47.4C136.304 47.4 135.897 47.5133 135.617 47.74C135.351 47.9533 135.157 48.2067 135.037 48.5C134.931 48.78 134.871 49.02 134.857 49.22ZM157.351 48.36C157.351 49.84 157.058 50.9933 156.471 51.82C155.898 52.6333 155.085 53.2 154.031 53.52C152.978 53.84 151.738 54 150.311 54H147.211V42.74H150.311C151.738 42.74 152.978 42.9533 154.031 43.38C155.085 43.7933 155.898 44.4133 156.471 45.24C157.058 46.0667 157.351 47.1067 157.351 48.36ZM149.231 52.32H150.891C151.771 52.32 152.531 52.22 153.171 52.02C153.811 51.8067 154.305 51.4133 154.651 50.84C154.998 50.2667 155.171 49.4333 155.171 48.34C155.171 47.0467 154.785 46.0867 154.011 45.46C153.251 44.82 152.211 44.5 150.891 44.5H149.231V52.32ZM162.66 54.2C161.713 54.2 160.94 54 160.34 53.6C159.753 53.1867 159.313 52.6667 159.02 52.04C158.74 51.4 158.593 50.7267 158.58 50.02C158.567 49.1933 158.72 48.46 159.04 47.82C159.373 47.1667 159.84 46.66 160.44 46.3C161.053 45.9267 161.773 45.74 162.6 45.74C163.333 45.74 163.987 45.9 164.56 46.22C165.147 46.54 165.613 46.9933 165.96 47.58C166.307 48.1533 166.487 48.8333 166.5 49.62C166.5 49.6467 166.5 49.72 166.5 49.84C166.5 49.96 166.5 50.06 166.5 50.14H160.52C160.52 50.9 160.707 51.4867 161.08 51.9C161.453 52.3 161.967 52.5 162.62 52.5C163.127 52.5 163.547 52.3733 163.88 52.12C164.227 51.8667 164.433 51.5333 164.5 51.12H166.48C166.387 51.9867 166.013 52.72 165.36 53.32C164.707 53.9067 163.807 54.2 162.66 54.2ZM160.58 49.22H164.46C164.447 49.1267 164.413 48.98 164.36 48.78C164.32 48.58 164.233 48.3733 164.1 48.16C163.98 47.9467 163.793 47.7667 163.54 47.62C163.287 47.4733 162.96 47.4 162.56 47.4C162.027 47.4 161.62 47.5133 161.34 47.74C161.073 47.9533 160.88 48.2067 160.76 48.5C160.653 48.78 160.593 49.02 160.58 49.22ZM173.738 45.78H175.738V46.12L172.918 54H170.078L167.258 46.14V45.78H169.218L171.518 52.32H171.558L173.738 45.78ZM180.512 54.2C179.565 54.2 178.792 54 178.192 53.6C177.605 53.1867 177.165 52.6667 176.872 52.04C176.592 51.4 176.445 50.7267 176.432 50.02C176.418 49.1933 176.572 48.46 176.892 47.82C177.225 47.1667 177.692 46.66 178.292 46.3C178.905 45.9267 179.625 45.74 180.452 45.74C181.185 45.74 181.838 45.9 182.412 46.22C182.998 46.54 183.465 46.9933 183.812 47.58C184.158 48.1533 184.338 48.8333 184.352 49.62C184.352 49.6467 184.352 49.72 184.352 49.84C184.352 49.96 184.352 50.06 184.352 50.14H178.372C178.372 50.9 178.558 51.4867 178.932 51.9C179.305 52.3 179.818 52.5 180.472 52.5C180.978 52.5 181.398 52.3733 181.732 52.12C182.078 51.8667 182.285 51.5333 182.352 51.12H184.332C184.238 51.9867 183.865 52.72 183.212 53.32C182.558 53.9067 181.658 54.2 180.512 54.2ZM178.432 49.22H182.312C182.298 49.1267 182.265 48.98 182.212 48.78C182.172 48.58 182.085 48.3733 181.952 48.16C181.832 47.9467 181.645 47.7667 181.392 47.62C181.138 47.4733 180.812 47.4 180.412 47.4C179.878 47.4 179.472 47.5133 179.192 47.74C178.925 47.9533 178.732 48.2067 178.612 48.5C178.505 48.78 178.445 49.02 178.432 49.22ZM186.13 54V42.74H188.13V54H186.13ZM193.716 54.2C192.782 54.2 192.009 54.02 191.396 53.66C190.782 53.3 190.322 52.8067 190.016 52.18C189.709 51.54 189.556 50.8133 189.556 50C189.542 48.7733 189.882 47.7667 190.576 46.98C191.282 46.18 192.329 45.78 193.716 45.78C195.062 45.78 196.082 46.1667 196.776 46.94C197.482 47.7133 197.836 48.7333 197.836 50C197.836 50.7867 197.689 51.5 197.396 52.14C197.102 52.78 196.649 53.2867 196.036 53.66C195.422 54.02 194.649 54.2 193.716 54.2ZM193.716 52.48C194.302 52.48 194.749 52.3533 195.056 52.1C195.376 51.8467 195.589 51.5267 195.696 51.14C195.802 50.74 195.856 50.34 195.856 49.94C195.856 49.5267 195.802 49.12 195.696 48.72C195.589 48.32 195.376 47.9933 195.056 47.74C194.749 47.4867 194.302 47.36 193.716 47.36C193.116 47.36 192.656 47.4933 192.336 47.76C192.029 48.0133 191.816 48.34 191.696 48.74C191.589 49.1267 191.536 49.5267 191.536 49.94C191.536 50.34 191.589 50.74 191.696 51.14C191.816 51.5267 192.029 51.8467 192.336 52.1C192.656 52.3533 193.116 52.48 193.716 52.48ZM204.369 54.2C203.863 54.2 203.436 54.1267 203.089 53.98C202.756 53.82 202.483 53.6333 202.269 53.42C202.069 53.2067 201.916 53.0133 201.809 52.84C201.716 52.6667 201.663 52.5667 201.649 52.54H201.609V57.66H199.509V45.78H201.289L201.629 47.58H201.669C201.683 47.54 201.729 47.4267 201.809 47.24C201.903 47.0533 202.043 46.8467 202.229 46.62C202.429 46.3933 202.703 46.2 203.049 46.04C203.396 45.8667 203.829 45.78 204.349 45.78C205.576 45.78 206.456 46.1733 206.989 46.96C207.523 47.7467 207.789 48.7733 207.789 50.04C207.789 51.3067 207.516 52.32 206.969 53.08C206.423 53.8267 205.556 54.2 204.369 54.2ZM203.749 52.48C204.309 52.48 204.736 52.3667 205.029 52.14C205.336 51.9 205.543 51.5933 205.649 51.22C205.769 50.8333 205.829 50.4333 205.829 50.02C205.829 49.6067 205.763 49.22 205.629 48.86C205.509 48.4867 205.296 48.1867 204.989 47.96C204.683 47.72 204.256 47.6 203.709 47.6C202.963 47.6 202.429 47.8333 202.109 48.3C201.789 48.7533 201.629 49.3267 201.629 50.02C201.629 50.74 201.796 51.3333 202.129 51.8C202.463 52.2533 203.003 52.48 203.749 52.48ZM212.953 54.2C212.006 54.2 211.233 54 210.633 53.6C210.046 53.1867 209.606 52.6667 209.313 52.04C209.033 51.4 208.886 50.7267 208.873 50.02C208.86 49.1933 209.013 48.46 209.333 47.82C209.666 47.1667 210.133 46.66 210.733 46.3C211.346 45.9267 212.066 45.74 212.893 45.74C213.626 45.74 214.28 45.9 214.853 46.22C215.44 46.54 215.906 46.9933 216.253 47.58C216.6 48.1533 216.78 48.8333 216.793 49.62C216.793 49.6467 216.793 49.72 216.793 49.84C216.793 49.96 216.793 50.06 216.793 50.14H210.813C210.813 50.9 211 51.4867 211.373 51.9C211.746 52.3 212.26 52.5 212.913 52.5C213.42 52.5 213.84 52.3733 214.173 52.12C214.52 51.8667 214.726 51.5333 214.793 51.12H216.773C216.68 51.9867 216.306 52.72 215.653 53.32C215 53.9067 214.1 54.2 212.953 54.2ZM210.873 49.22H214.753C214.74 49.1267 214.706 48.98 214.653 48.78C214.613 48.58 214.526 48.3733 214.393 48.16C214.273 47.9467 214.086 47.7667 213.833 47.62C213.58 47.4733 213.253 47.4 212.853 47.4C212.32 47.4 211.913 47.5133 211.633 47.74C211.366 47.9533 211.173 48.2067 211.053 48.5C210.946 48.78 210.886 49.02 210.873 49.22ZM218.451 54V45.78H220.351L220.491 48.06C220.571 47.7133 220.725 47.3667 220.951 47.02C221.191 46.66 221.518 46.3667 221.931 46.14C222.358 45.9 222.905 45.78 223.571 45.78H223.871V48.06H223.571C222.425 48.06 221.625 48.2467 221.171 48.62C220.718 48.98 220.491 49.5933 220.491 50.46V54H218.451Z" fill="#EE1C25"/>
<path d="M27.8061 38.5914C27.3468 38.5914 26.9749 38.9149 26.9749 39.3128C26.9749 39.7109 27.3468 40.0345 27.8061 40.0345C28.2633 40.0345 28.6352 39.7108 28.6352 39.3128C28.6352 38.9149 28.2633 38.5914 27.8061 38.5914Z" fill="white"/>
<path d="M42.0354 40.2353C41.1263 36.9522 40.1607 35.2073 38.2347 34.7123C37.8151 34.6046 37.4579 34.5625 37.1283 34.5625C35.9424 34.5625 35.1114 35.1074 32.9998 35.1074C30.8869 35.1074 30.0564 34.5626 28.8722 34.5625C28.5428 34.5625 28.1863 34.6046 27.767 34.7123C25.839 35.2073 24.8734 36.9522 23.9659 40.2353C23.0558 43.5184 23.2211 45.8894 24.2959 46.3319C24.4708 46.4041 24.6495 46.4375 24.831 46.4375C25.7632 46.4375 26.7706 45.5529 27.7382 44.5061C28.8405 43.3147 29.1181 43.2832 32.4767 43.2832H33.5227C36.8806 43.2832 37.1591 43.3146 38.2614 44.5061C39.2293 45.5528 40.2367 46.4359 41.1689 46.4359C41.3505 46.4359 41.5291 46.4033 41.7041 46.3311C42.7786 45.8886 42.9439 43.5184 42.0354 40.2353ZM27.8108 40.7833C26.881 40.7833 26.125 40.1243 26.125 39.3129C26.125 38.5024 26.881 37.8417 27.8108 37.8417C28.7413 37.8417 29.4973 38.5024 29.4973 39.3129C29.4973 40.1243 28.7414 40.7833 27.8108 40.7833ZM35.2376 40.0599C34.7625 40.0599 34.375 39.7252 34.375 39.3137C34.375 38.9022 34.7625 38.5677 35.2376 38.5677C35.7159 38.5677 36.1034 38.9022 36.1034 39.3137C36.1034 39.7252 35.7159 40.0599 35.2376 40.0599ZM37.1245 41.6875C36.6493 41.6875 36.2628 41.3553 36.2628 40.9447C36.2628 40.5307 36.6493 40.1986 37.1245 40.1986C37.6034 40.1986 37.9902 40.5307 37.9902 40.9447C37.9903 41.3553 37.6034 41.6875 37.1245 41.6875ZM37.1245 38.4289C36.6493 38.4289 36.2628 38.0952 36.2628 37.6837C36.2628 37.272 36.6493 36.9375 37.1245 36.9375C37.6034 36.9375 37.9902 37.272 37.9902 37.6837C37.9903 38.0952 37.6034 38.4289 37.1245 38.4289ZM39.0133 40.0599C38.5362 40.0599 38.1496 39.7252 38.1496 39.3137C38.1496 38.9022 38.5361 38.5677 39.0133 38.5677C39.4885 38.5677 39.875 38.9022 39.875 39.3137C39.875 39.7252 39.4885 40.0599 39.0133 40.0599Z" fill="white"/>
<defs>
<filter id="filter0_f_1_461" x="0.569305" y="0.306152" width="283.862" height="65.9453" filterUnits="userSpaceOnUse" color-interpolation-filters="sRGB">
<feFlood flood-opacity="0" result="BackgroundImageFix"/>
<feBlend mode="normal" in="SourceGraphic" in2="BackgroundImageFix" result="shape"/>
<feGaussianBlur stdDeviation="10" result="effect1_foregroundBlur_1_461"/>
</filter>
<linearGradient id="paint0_linear_1_461" x1="19" y1="41.1861" x2="47" y2="41.1861" gradientUnits="userSpaceOnUse">
<stop stop-color="#EE1C25"/>
<stop offset="1" stop-color="#EE1C25"/>
</linearGradient>
</defs>
</svg>
