<svg width="242" height="70" viewBox="0 0 242 70" fill="none" xmlns="http://www.w3.org/2000/svg">
<g filter="url(#filter0_f_1_459)">
<rect width="153.383" height="25.9453" rx="12.9726" transform="matrix(1 0 0 -1 23.3086 46.2515)" fill="white"/>
<rect x="0.5" y="-0.5" width="152.383" height="24.9453" rx="12.4726" transform="matrix(1 0 0 -1 23.3086 45.2515)" stroke="#EE1C25"/>
</g>
<rect x="0.5" y="-0.5" width="177" height="56.0796" rx="21" transform="matrix(1 0 0 -1 11 68.0796)" fill="white" stroke="#EE1C25"/>
<rect x="31" y="25" width="29" height="28" rx="14" fill="url(#paint0_linear_1_459)"/>
<g clip-path="url(#clip0_1_459)">
<path d="M41.5819 30.9394V32.8125H39.8102L41.5819 30.9394Z" fill="white"/>
<path d="M55.5059 35.2397L55.2217 35.625L54.5284 35.0625L54.8153 34.6744C54.8286 34.6611 54.8462 34.6537 54.8645 34.6537C54.8827 34.6537 54.9003 34.6611 54.9136 34.6744L55.4927 35.1525C55.5035 35.1635 55.5107 35.178 55.5131 35.1937C55.5155 35.2095 55.513 35.2256 55.5059 35.2397Z" fill="white"/>
<path d="M49.6489 43.0219L48.8281 43.5731L49.1309 42.5944L49.6489 43.0219Z" fill="white"/>
<path d="M54.903 36.0609L50.0553 42.659L49.3647 42.0881L54.2097 35.4928L54.903 36.0609Z" fill="white"/>
<path d="M48.7537 42.0516C48.7616 42.0209 48.7751 41.9922 48.7936 41.9672L51.4684 38.3278V30.5625H42.0998V33.0938C42.0998 33.1683 42.0719 33.2399 42.022 33.2926C41.9722 33.3454 41.9047 33.375 41.8342 33.375H39.4436V47.4375H51.4684V41.6325L50.3077 43.2188C50.2881 43.2431 50.2658 43.2649 50.2412 43.2834L48.4934 44.4563C48.4519 44.4835 48.4041 44.4981 48.3553 44.4984C48.2975 44.4976 48.2416 44.4769 48.1959 44.4394C48.1541 44.404 48.1234 44.3561 48.1077 44.3019C48.0921 44.2477 48.0923 44.1897 48.1083 44.1356L48.7537 42.0516ZM41.1595 34.6013H49.7525C49.8229 34.6013 49.8905 34.6309 49.9403 34.6836C49.9901 34.7364 50.0181 34.8079 50.0181 34.8825C50.0181 34.9571 49.9901 35.0286 49.9403 35.0814C49.8905 35.1341 49.8229 35.1638 49.7525 35.1638H41.1595C41.0891 35.1638 41.0215 35.1341 40.9717 35.0814C40.9219 35.0286 40.8939 34.9571 40.8939 34.8825C40.8939 34.8079 40.9219 34.7364 40.9717 34.6836C41.0215 34.6309 41.0891 34.6013 41.1595 34.6013ZM47.5345 45.5981H41.1595C41.0891 45.5981 41.0215 45.5685 40.9717 45.5157C40.9219 45.463 40.8939 45.3915 40.8939 45.3169C40.8939 45.2423 40.9219 45.1707 40.9717 45.118C41.0215 45.0653 41.0891 45.0356 41.1595 45.0356H47.5345C47.605 45.0356 47.6725 45.0653 47.7224 45.118C47.7722 45.1707 47.8002 45.2423 47.8002 45.3169C47.8002 45.3915 47.7722 45.463 47.7224 45.5157C47.6725 45.5685 47.605 45.5981 47.5345 45.5981ZM47.7098 42.1163H41.1595C41.0891 42.1163 41.0215 42.0866 40.9717 42.0339C40.9219 41.9811 40.8939 41.9096 40.8939 41.835C40.8939 41.7604 40.9219 41.6889 40.9717 41.6361C41.0215 41.5834 41.0891 41.5538 41.1595 41.5538H47.7178C47.7883 41.5538 47.8558 41.5834 47.9056 41.6361C47.9554 41.6889 47.9834 41.7604 47.9834 41.835C47.9834 41.9096 47.9554 41.9811 47.9056 42.0339C47.8558 42.0866 47.7883 42.1163 47.7178 42.1163H47.7098ZM41.1595 38.6344C41.0891 38.6344 41.0215 38.6047 40.9717 38.552C40.9219 38.4993 40.8939 38.4277 40.8939 38.3531C40.8939 38.2785 40.9219 38.207 40.9717 38.1543C41.0215 38.1015 41.0891 38.0719 41.1595 38.0719H49.7525C49.8229 38.0719 49.8905 38.1015 49.9403 38.1543C49.9901 38.207 50.0181 38.2785 50.0181 38.3531C50.0181 38.4277 49.9901 38.4993 49.9403 38.552C49.8905 38.6047 49.8229 38.6344 49.7525 38.6344H41.1595Z" fill="white"/>
</g>
<path d="M76.9437 45H74.9037V33.74H79.4237C80.677 33.74 81.6503 34.0533 82.3437 34.68C83.037 35.3067 83.3837 36.2533 83.3837 37.52C83.3837 38.6267 83.0237 39.4933 82.3037 40.12C81.597 40.7467 80.637 41.06 79.4237 41.06H76.9437V45ZM79.1437 35.4H76.9437V39.56H79.1437C79.8637 39.56 80.4437 39.3867 80.8837 39.04C81.3237 38.6933 81.5437 38.1733 81.5437 37.48C81.5437 36.7733 81.3237 36.2533 80.8837 35.92C80.457 35.5733 79.877 35.4 79.1437 35.4ZM88.3046 45.2C87.3579 45.2 86.5846 45 85.9846 44.6C85.3979 44.1867 84.9579 43.6667 84.6646 43.04C84.3846 42.4 84.2379 41.7267 84.2246 41.02C84.2113 40.1933 84.3646 39.46 84.6846 38.82C85.0179 38.1667 85.4846 37.66 86.0846 37.3C86.6979 36.9267 87.4179 36.74 88.2446 36.74C88.9779 36.74 89.6313 36.9 90.2046 37.22C90.7913 37.54 91.2579 37.9933 91.6046 38.58C91.9513 39.1533 92.1313 39.8333 92.1446 40.62C92.1446 40.6467 92.1446 40.72 92.1446 40.84C92.1446 40.96 92.1446 41.06 92.1446 41.14H86.1646C86.1646 41.9 86.3513 42.4867 86.7246 42.9C87.0979 43.3 87.6113 43.5 88.2646 43.5C88.7713 43.5 89.1913 43.3733 89.5246 43.12C89.8713 42.8667 90.0779 42.5333 90.1446 42.12H92.1246C92.0313 42.9867 91.6579 43.72 91.0046 44.32C90.3513 44.9067 89.4513 45.2 88.3046 45.2ZM86.2246 40.22H90.1046C90.0913 40.1267 90.0579 39.98 90.0046 39.78C89.9646 39.58 89.8779 39.3733 89.7446 39.16C89.6246 38.9467 89.4379 38.7667 89.1846 38.62C88.9313 38.4733 88.6046 38.4 88.2046 38.4C87.6713 38.4 87.2646 38.5133 86.9846 38.74C86.7179 38.9533 86.5246 39.2067 86.4046 39.5C86.2979 39.78 86.2379 40.02 86.2246 40.22ZM93.7029 45V36.82H95.4429L95.7829 38.56H95.8229C95.8362 38.52 95.8829 38.4133 95.9629 38.24C96.0562 38.0533 96.2029 37.8467 96.4029 37.62C96.6162 37.3933 96.8962 37.2 97.2429 37.04C97.6029 36.8667 98.0496 36.78 98.5829 36.78C99.3162 36.78 99.8829 36.9267 100.283 37.22C100.683 37.5133 100.97 37.8867 101.143 38.34C101.316 38.78 101.423 39.24 101.463 39.72C101.503 40.2 101.523 40.6333 101.523 41.02V45H99.5229V41C99.5229 40.56 99.4829 40.16 99.4029 39.8C99.3229 39.4267 99.1496 39.1333 98.8829 38.92C98.6296 38.6933 98.2496 38.58 97.7429 38.58C97.2096 38.58 96.8029 38.7 96.5229 38.94C96.2429 39.18 96.0496 39.4933 95.9429 39.88C95.8362 40.2533 95.7829 40.6533 95.7829 41.08V45H93.7029ZM106.519 45.2C105.293 45.2 104.419 44.82 103.899 44.06C103.379 43.2867 103.119 42.28 103.119 41.04C103.119 39.7467 103.386 38.7133 103.919 37.94C104.453 37.1667 105.319 36.78 106.519 36.78C107.039 36.78 107.473 36.8667 107.819 37.04C108.179 37.2 108.459 37.3933 108.659 37.62C108.873 37.8467 109.026 38.0533 109.119 38.24C109.213 38.4267 109.266 38.54 109.279 38.58H109.319V33.74H111.419V45H109.659L109.319 43.54H109.279C109.266 43.5667 109.206 43.6667 109.099 43.84C109.006 44.0133 108.846 44.2067 108.619 44.42C108.406 44.6333 108.126 44.82 107.779 44.98C107.433 45.1267 107.013 45.2 106.519 45.2ZM107.179 43.48C107.939 43.48 108.479 43.2533 108.799 42.8C109.133 42.3333 109.299 41.74 109.299 41.02C109.299 40.3267 109.139 39.7533 108.819 39.3C108.513 38.8333 107.986 38.6 107.239 38.6C106.693 38.6 106.259 38.72 105.939 38.96C105.633 39.1867 105.419 39.4867 105.299 39.86C105.179 40.22 105.119 40.6067 105.119 41.02C105.119 41.4333 105.173 41.8333 105.279 42.22C105.399 42.5933 105.606 42.9 105.899 43.14C106.206 43.3667 106.633 43.48 107.179 43.48ZM115.937 45.2C114.804 45.2 113.997 44.8133 113.517 44.04C113.037 43.2667 112.797 42.2533 112.797 41C112.797 39.7333 113.037 38.7133 113.517 37.94C114.01 37.1533 114.817 36.76 115.937 36.76C116.577 36.76 117.084 36.8733 117.457 37.1C117.83 37.3133 118.11 37.5533 118.297 37.82C118.484 38.0867 118.597 38.2867 118.637 38.42H118.677V36.78H120.777V45H119.017L118.677 43.66H118.637C118.597 43.78 118.477 43.9667 118.277 44.22C118.09 44.46 117.804 44.6867 117.417 44.9C117.044 45.1 116.55 45.2 115.937 45.2ZM116.777 43.48C117.524 43.48 118.024 43.2467 118.277 42.78C118.544 42.3 118.677 41.7133 118.677 41.02C118.677 40.2867 118.544 39.6933 118.277 39.24C118.01 38.7867 117.51 38.56 116.777 38.56C116.257 38.56 115.85 38.6733 115.557 38.9C115.277 39.1267 115.077 39.4267 114.957 39.8C114.85 40.16 114.797 40.5667 114.797 41.02C114.797 41.4733 114.85 41.8867 114.957 42.26C115.077 42.6333 115.277 42.9333 115.557 43.16C115.85 43.3733 116.257 43.48 116.777 43.48ZM122.899 45.02V38.22H121.779V36.78H122.899V35.44C122.899 34.72 123.059 34.2 123.379 33.88C123.713 33.56 124.206 33.4 124.859 33.4H127.019V34.98H124.939V36.78H126.959V38.22H124.939V45.02H122.899ZM131.383 45C130.73 45 130.237 44.84 129.903 44.52C129.583 44.2 129.423 43.68 129.423 42.96V38.22H128.183V36.78C128.57 36.78 128.87 36.74 129.083 36.66C129.297 36.58 129.45 36.3933 129.543 36.1C129.637 35.8067 129.683 35.3333 129.683 34.68H131.323V36.78H133.203V38.22H131.323V43.4H133.243V45H131.383ZM137.597 45.2C136.464 45.2 135.657 44.8133 135.177 44.04C134.697 43.2667 134.457 42.2533 134.457 41C134.457 39.7333 134.697 38.7133 135.177 37.94C135.67 37.1533 136.477 36.76 137.597 36.76C138.237 36.76 138.744 36.8733 139.117 37.1C139.49 37.3133 139.77 37.5533 139.957 37.82C140.144 38.0867 140.257 38.2867 140.297 38.42H140.337V36.78H142.437V45H140.677L140.337 43.66H140.297C140.257 43.78 140.137 43.9667 139.937 44.22C139.75 44.46 139.464 44.6867 139.077 44.9C138.704 45.1 138.21 45.2 137.597 45.2ZM138.437 43.48C139.184 43.48 139.684 43.2467 139.937 42.78C140.204 42.3 140.337 41.7133 140.337 41.02C140.337 40.2867 140.204 39.6933 139.937 39.24C139.67 38.7867 139.17 38.56 138.437 38.56C137.917 38.56 137.51 38.6733 137.217 38.9C136.937 39.1267 136.737 39.4267 136.617 39.8C136.51 40.16 136.457 40.5667 136.457 41.02C136.457 41.4733 136.51 41.8867 136.617 42.26C136.737 42.6333 136.937 42.9333 137.217 43.16C137.51 43.3733 137.917 43.48 138.437 43.48ZM143.94 45V36.78H145.84L145.98 39.06C146.06 38.7133 146.213 38.3667 146.44 38.02C146.68 37.66 147.006 37.3667 147.42 37.14C147.846 36.9 148.393 36.78 149.06 36.78H149.36V39.06H149.06C147.913 39.06 147.113 39.2467 146.66 39.62C146.206 39.98 145.98 40.5933 145.98 41.46V45H143.94ZM153.417 45.2C152.284 45.2 151.477 44.8133 150.997 44.04C150.517 43.2667 150.277 42.2533 150.277 41C150.277 39.7333 150.517 38.7133 150.997 37.94C151.491 37.1533 152.297 36.76 153.417 36.76C154.057 36.76 154.564 36.8733 154.937 37.1C155.311 37.3133 155.591 37.5533 155.777 37.82C155.964 38.0867 156.077 38.2867 156.117 38.42H156.157V36.78H158.257V45H156.497L156.157 43.66H156.117C156.077 43.78 155.957 43.9667 155.757 44.22C155.571 44.46 155.284 44.6867 154.897 44.9C154.524 45.1 154.031 45.2 153.417 45.2ZM154.257 43.48C155.004 43.48 155.504 43.2467 155.757 42.78C156.024 42.3 156.157 41.7133 156.157 41.02C156.157 40.2867 156.024 39.6933 155.757 39.24C155.491 38.7867 154.991 38.56 154.257 38.56C153.737 38.56 153.331 38.6733 153.037 38.9C152.757 39.1267 152.557 39.4267 152.437 39.8C152.331 40.16 152.277 40.5667 152.277 41.02C152.277 41.4733 152.331 41.8867 152.437 42.26C152.557 42.6333 152.757 42.9333 153.037 43.16C153.331 43.3733 153.737 43.48 154.257 43.48ZM159.66 45V36.82H161.4L161.74 38.56H161.78C161.793 38.52 161.84 38.4133 161.92 38.24C162.013 38.0533 162.16 37.8467 162.36 37.62C162.573 37.3933 162.853 37.2 163.2 37.04C163.56 36.8667 164.007 36.78 164.54 36.78C165.273 36.78 165.84 36.9267 166.24 37.22C166.64 37.5133 166.927 37.8867 167.1 38.34C167.273 38.78 167.38 39.24 167.42 39.72C167.46 40.2 167.48 40.6333 167.48 41.02V45H165.48V41C165.48 40.56 165.44 40.16 165.36 39.8C165.28 39.4267 165.107 39.1333 164.84 38.92C164.587 38.6933 164.207 38.58 163.7 38.58C163.167 38.58 162.76 38.7 162.48 38.94C162.2 39.18 162.007 39.4933 161.9 39.88C161.793 40.2533 161.74 40.6533 161.74 41.08V45H159.66Z" fill="#EE1C25"/>
<defs>
<filter id="filter0_f_1_459" x="3.30859" y="0.306152" width="193.383" height="65.9453" filterUnits="userSpaceOnUse" color-interpolation-filters="sRGB">
<feFlood flood-opacity="0" result="BackgroundImageFix"/>
<feBlend mode="normal" in="SourceGraphic" in2="BackgroundImageFix" result="shape"/>
<feGaussianBlur stdDeviation="10" result="effect1_foregroundBlur_1_459"/>
</filter>
<linearGradient id="paint0_linear_1_459" x1="31" y1="38.6744" x2="60" y2="38.6744" gradientUnits="userSpaceOnUse">
<stop stop-color="#EE1C25"/>
<stop offset="1" stop-color="#EE1C25"/>
</linearGradient>
<clipPath id="clip0_1_459">
<rect width="17" height="18" fill="white" transform="translate(39 30)"/>
</clipPath>
</defs>
</svg>
