<svg width="735" height="42" viewBox="0 0 735 42" fill="none" xmlns="http://www.w3.org/2000/svg">
<rect x="735" y="26" width="4.00003" height="629" rx="2.00001" transform="rotate(90 735 26)" fill="#EE1C25"/>
<path d="M1.625 35V20.925H4.175V27.575L10.4 20.925H13.725V21.225L8.15 26.6L14.025 34.7V35H11.1L6.3 28.375L4.175 30.425V35H1.625ZM18.9031 35.25C17.4865 35.25 16.4781 34.7667 15.8781 33.8C15.2781 32.8333 14.9781 31.5667 14.9781 30C14.9781 28.4167 15.2781 27.1417 15.8781 26.175C16.4948 25.1917 17.5031 24.7 18.9031 24.7C19.7031 24.7 20.3365 24.8417 20.8031 25.125C21.2698 25.3917 21.6198 25.6917 21.8531 26.025C22.0865 26.3583 22.2281 26.6083 22.2781 26.775H22.3281V24.725H24.9531V35H22.7531L22.3281 33.325H22.2781C22.2281 33.475 22.0781 33.7083 21.8281 34.025C21.5948 34.325 21.2365 34.6083 20.7531 34.875C20.2865 35.125 19.6698 35.25 18.9031 35.25ZM19.9531 33.1C20.8865 33.1 21.5115 32.8083 21.8281 32.225C22.1615 31.625 22.3281 30.8917 22.3281 30.025C22.3281 29.1083 22.1615 28.3667 21.8281 27.8C21.4948 27.2333 20.8698 26.95 19.9531 26.95C19.3031 26.95 18.7948 27.0917 18.4281 27.375C18.0781 27.6583 17.8281 28.0333 17.6781 28.5C17.5448 28.95 17.4781 29.4583 17.4781 30.025C17.4781 30.5917 17.5448 31.1083 17.6781 31.575C17.8281 32.0417 18.0781 32.4167 18.4281 32.7C18.7948 32.9667 19.3031 33.1 19.9531 33.1ZM30.0813 35C29.2646 35 28.6479 34.8 28.2313 34.4C27.8313 34 27.6313 33.35 27.6313 32.45V26.525H26.0813V24.725C26.5646 24.725 26.9396 24.675 27.2063 24.575C27.4729 24.475 27.6646 24.2417 27.7813 23.875C27.8979 23.5083 27.9563 22.9167 27.9563 22.1H30.0063V24.725H32.3563V26.525H30.0063V33H32.4063V35H30.0813ZM38.9525 35.25C37.7692 35.25 36.8025 35 36.0525 34.5C35.3192 33.9833 34.7692 33.3333 34.4025 32.55C34.0525 31.75 33.8692 30.9083 33.8525 30.025C33.8359 28.9917 34.0275 28.075 34.4275 27.275C34.8442 26.4583 35.4275 25.825 36.1775 25.375C36.9442 24.9083 37.8442 24.675 38.8775 24.675C39.7942 24.675 40.6109 24.875 41.3275 25.275C42.0609 25.675 42.6442 26.2417 43.0775 26.975C43.5109 27.6917 43.7359 28.5417 43.7525 29.525C43.7525 29.5583 43.7525 29.65 43.7525 29.8C43.7525 29.95 43.7525 30.075 43.7525 30.175H36.2775C36.2775 31.125 36.5109 31.8583 36.9775 32.375C37.4442 32.875 38.0859 33.125 38.9025 33.125C39.5359 33.125 40.0609 32.9667 40.4775 32.65C40.9109 32.3333 41.1692 31.9167 41.2525 31.4H43.7275C43.6109 32.4833 43.1442 33.4 42.3275 34.15C41.5109 34.8833 40.3859 35.25 38.9525 35.25ZM36.3525 29.025H41.2025C41.1859 28.9083 41.1442 28.725 41.0775 28.475C41.0275 28.225 40.9192 27.9667 40.7525 27.7C40.6025 27.4333 40.3692 27.2083 40.0525 27.025C39.7359 26.8417 39.3275 26.75 38.8275 26.75C38.1609 26.75 37.6525 26.8917 37.3025 27.175C36.9692 27.4417 36.7275 27.7583 36.5775 28.125C36.4442 28.475 36.3692 28.775 36.3525 29.025ZM48.5754 39.575V37.175H53.0754V33.175H53.0254C53.0087 33.2083 52.9337 33.3333 52.8004 33.55C52.6837 33.7667 52.4921 34.0083 52.2254 34.275C51.9587 34.5417 51.6087 34.775 51.1754 34.975C50.7587 35.1583 50.2337 35.25 49.6004 35.25C48.0837 35.25 46.9921 34.7667 46.3254 33.8C45.6587 32.8333 45.3254 31.575 45.3254 30.025C45.3254 28.4083 45.6587 27.125 46.3254 26.175C47.0087 25.2083 48.1004 24.725 49.6004 24.725C50.2671 24.725 50.8171 24.8333 51.2504 25.05C51.6837 25.25 52.0254 25.4917 52.2754 25.775C52.5254 26.0583 52.7004 26.3167 52.8004 26.55C52.9171 26.7833 52.9837 26.925 53.0004 26.975H53.0504L53.0754 24.725H55.7004V35.875C55.7004 37.2417 55.4254 38.2 54.8754 38.75C54.3421 39.3 53.5087 39.575 52.3754 39.575H48.5754ZM50.4004 33.1C51.3337 33.1 52.0087 32.8167 52.4254 32.25C52.8421 31.6667 53.0504 30.925 53.0504 30.025C53.0504 29.1583 52.8504 28.4417 52.4504 27.875C52.0504 27.2917 51.3837 27 50.4504 27C49.7671 27 49.2337 27.15 48.8504 27.45C48.4671 27.7333 48.1921 28.1083 48.0254 28.575C47.8754 29.025 47.8004 29.5083 47.8004 30.025C47.8004 30.5417 47.8671 31.0417 48.0004 31.525C48.1504 31.9917 48.4087 32.375 48.7754 32.675C49.1587 32.9583 49.7004 33.1 50.4004 33.1ZM62.4156 35.25C61.249 35.25 60.2823 35.025 59.5156 34.575C58.749 34.125 58.174 33.5083 57.7906 32.725C57.4073 31.925 57.2156 31.0167 57.2156 30C57.199 28.4667 57.624 27.2083 58.4906 26.225C59.374 25.225 60.6823 24.725 62.4156 24.725C64.099 24.725 65.374 25.2083 66.2406 26.175C67.124 27.1417 67.5656 28.4167 67.5656 30C67.5656 30.9833 67.3823 31.875 67.0156 32.675C66.649 33.475 66.0823 34.1083 65.3156 34.575C64.549 35.025 63.5823 35.25 62.4156 35.25ZM62.4156 33.1C63.149 33.1 63.7073 32.9417 64.0906 32.625C64.4906 32.3083 64.7573 31.9083 64.8906 31.425C65.024 30.925 65.0906 30.425 65.0906 29.925C65.0906 29.4083 65.024 28.9 64.8906 28.4C64.7573 27.9 64.4906 27.4917 64.0906 27.175C63.7073 26.8583 63.149 26.7 62.4156 26.7C61.6656 26.7 61.0906 26.8667 60.6906 27.2C60.3073 27.5167 60.0406 27.925 59.8906 28.425C59.7573 28.9083 59.6906 29.4083 59.6906 29.925C59.6906 30.425 59.7573 30.925 59.8906 31.425C60.0406 31.9083 60.3073 32.3083 60.6906 32.625C61.0906 32.9417 61.6656 33.1 62.4156 33.1ZM69.4826 35V24.725H71.8576L72.0326 27.575C72.1326 27.1417 72.3243 26.7083 72.6076 26.275C72.9076 25.825 73.316 25.4583 73.8326 25.175C74.366 24.875 75.0493 24.725 75.8826 24.725H76.2576V27.575H75.8826C74.4493 27.575 73.4493 27.8083 72.8826 28.275C72.316 28.725 72.0326 29.4917 72.0326 30.575V35H69.4826ZM79.5049 23.6C78.9549 23.6167 78.5882 23.4917 78.4049 23.225C78.2382 22.9417 78.1549 22.6083 78.1549 22.225C78.1549 21.8583 78.2465 21.5417 78.4299 21.275C78.6132 21.0083 78.9715 20.875 79.5049 20.875C80.0215 20.875 80.3632 21.0083 80.5299 21.275C80.7132 21.5417 80.8049 21.8583 80.8049 22.225C80.8049 22.6083 80.7132 22.9333 80.5299 23.2C80.3632 23.45 80.0215 23.5833 79.5049 23.6ZM78.2049 35V24.725H80.7549V35H78.2049Z" fill="#EE1C25"/>
</svg>
