<svg width="29" height="28" viewBox="0 0 29 28" fill="none" xmlns="http://www.w3.org/2000/svg">
<rect width="29" height="28" rx="14" fill="url(#paint0_linear_8_463)"/>
<g clip-path="url(#clip0_8_463)">
<path d="M10.5819 5.93939V7.81252H8.81015L10.5819 5.93939Z" fill="white"/>
<path d="M24.5059 10.2397L24.2217 10.625L23.5284 10.0625L23.8153 9.67437C23.8286 9.66113 23.8462 9.65375 23.8645 9.65375C23.8827 9.65375 23.9003 9.66113 23.9136 9.67437L24.4927 10.1525C24.5035 10.1635 24.5107 10.178 24.5131 10.1937C24.5155 10.2095 24.513 10.2256 24.5059 10.2397V10.2397Z" fill="white"/>
<path d="M18.6489 18.0219L17.8281 18.5731L18.1309 17.5944L18.6489 18.0219Z" fill="white"/>
<path d="M23.903 11.0609L19.0553 17.659L18.3647 17.0881L23.2097 10.4928L23.903 11.0609Z" fill="white"/>
<path d="M17.7537 17.0516C17.7616 17.0209 17.7751 16.9922 17.7936 16.9672L20.4684 13.3278V5.5625H11.0998V8.09375C11.0998 8.16834 11.0719 8.23988 11.022 8.29262C10.9722 8.34537 10.9047 8.375 10.8342 8.375H8.44359V22.4375H20.4684V16.6325L19.3077 18.2188C19.2881 18.2431 19.2658 18.2649 19.2412 18.2834L17.4934 19.4563C17.4519 19.4835 17.4041 19.4981 17.3553 19.4984C17.2975 19.4976 17.2416 19.4769 17.1959 19.4394C17.1541 19.404 17.1234 19.3561 17.1077 19.3019C17.0921 19.2477 17.0923 19.1897 17.1083 19.1356L17.7537 17.0516ZM10.1595 9.60125H18.7525C18.8229 9.60125 18.8905 9.63088 18.9403 9.68363C18.9901 9.73637 19.0181 9.80791 19.0181 9.8825C19.0181 9.95709 18.9901 10.0286 18.9403 10.0814C18.8905 10.1341 18.8229 10.1638 18.7525 10.1638H10.1595C10.0891 10.1638 10.0215 10.1341 9.9717 10.0814C9.92189 10.0286 9.8939 9.95709 9.8939 9.8825C9.8939 9.80791 9.92189 9.73637 9.9717 9.68363C10.0215 9.63088 10.0891 9.60125 10.1595 9.60125ZM16.5345 20.5981H10.1595C10.0891 20.5981 10.0215 20.5685 9.9717 20.5157C9.92189 20.463 9.8939 20.3915 9.8939 20.3169C9.8939 20.2423 9.92189 20.1707 9.9717 20.118C10.0215 20.0653 10.0891 20.0356 10.1595 20.0356H16.5345C16.605 20.0356 16.6725 20.0653 16.7224 20.118C16.7722 20.1707 16.8002 20.2423 16.8002 20.3169C16.8002 20.3915 16.7722 20.463 16.7224 20.5157C16.6725 20.5685 16.605 20.5981 16.5345 20.5981ZM16.7098 17.1163H10.1595C10.0891 17.1163 10.0215 17.0866 9.9717 17.0339C9.92189 16.9811 9.8939 16.9096 9.8939 16.835C9.8939 16.7604 9.92189 16.6889 9.9717 16.6361C10.0215 16.5834 10.0891 16.5538 10.1595 16.5538H16.7178C16.7883 16.5538 16.8558 16.5834 16.9056 16.6361C16.9554 16.6889 16.9834 16.7604 16.9834 16.835C16.9834 16.9096 16.9554 16.9811 16.9056 17.0339C16.8558 17.0866 16.7883 17.1163 16.7178 17.1163H16.7098ZM10.1595 13.6344C10.0891 13.6344 10.0215 13.6047 9.9717 13.552C9.92189 13.4993 9.8939 13.4277 9.8939 13.3531C9.8939 13.2785 9.92189 13.207 9.9717 13.1543C10.0215 13.1015 10.0891 13.0719 10.1595 13.0719H18.7525C18.8229 13.0719 18.8905 13.1015 18.9403 13.1543C18.9901 13.207 19.0181 13.2785 19.0181 13.3531C19.0181 13.4277 18.9901 13.4993 18.9403 13.552C18.8905 13.6047 18.8229 13.6344 18.7525 13.6344H10.1595Z" fill="white"/>
</g>
<defs>
<linearGradient id="paint0_linear_8_463" x1="-8.22082e-08" y1="13.6744" x2="29" y2="13.6744" gradientUnits="userSpaceOnUse">
<stop stop-color="#EE1C25"/>
<stop offset="1" stop-color="#EE1C25"/>
</linearGradient>
<clipPath id="clip0_8_463">
<rect width="17" height="18" fill="white" transform="translate(8 5)"/>
</clipPath>
</defs>
</svg>
