<svg width="34" height="33" viewBox="0 0 34 33" fill="none" xmlns="http://www.w3.org/2000/svg">
<rect y="1" width="29" height="28" rx="14" fill="url(#paint0_linear_8_466)"/>
<path d="M24.0538 12.078V8.79452C24.0538 8.79452 23.8591 7.83752 22.4731 8.09492H5.9566C5.9566 8.09492 5.1613 8.14442 5.2108 9.48092V20.0805C5.2108 20.0805 5.1976 20.8923 6.3394 21.0111H21.1531C21.1531 21.0111 22.9516 19.668 24.0571 19.7868V12.078H24.0538Z" fill="white"/>
<path d="M24.595 18.6945C26.0093 18.6945 27.1558 17.548 27.1558 16.1337C27.1558 14.7194 26.0093 13.5729 24.595 13.5729C23.1807 13.5729 22.0342 14.7194 22.0342 16.1337C22.0342 17.548 23.1807 18.6945 24.595 18.6945Z" fill="#EE1C25"/>
<path d="M9.9661 11.2464C10.5566 11.2464 11.0353 10.7677 11.0353 10.1772C11.0353 9.58667 10.5566 9.10797 9.9661 9.10797C9.37559 9.10797 8.8969 9.58667 8.8969 10.1772C8.8969 10.7677 9.37559 11.2464 9.9661 11.2464Z" fill="#EE1C25"/>
<path d="M22.1101 15.4374C22.1101 15.4374 22.4764 13.5762 24.6577 13.5762C24.6577 13.5762 26.3803 13.5267 27.0634 15.4374L27.5254 15.6981C27.5254 15.6981 28.1557 12.2661 24.199 12.1044C24.199 12.1044 21.3577 12.4146 21.6349 15.6651L22.1101 15.4374V15.4374Z" fill="#EE1C25"/>
<path d="M22.4302 17.6055H21.79C21.7207 17.6055 21.6646 17.5494 21.6646 17.4801V15.708C21.6646 15.6387 21.7207 15.5826 21.79 15.5826H22.4302C22.4995 15.5826 22.5556 15.6387 22.5556 15.708V17.4801C22.5556 17.5494 22.4995 17.6055 22.4302 17.6055ZM27.3967 17.6385H26.7565C26.6872 17.6385 26.6311 17.5824 26.6311 17.5131V15.6783C26.6311 15.609 26.6872 15.5529 26.7565 15.5529H27.3967C27.466 15.5529 27.5221 15.609 27.5221 15.6783V17.5131C27.5221 17.5824 27.466 17.6385 27.3967 17.6385ZM8.1214 13.8468H11.7811C11.7811 13.8468 11.8504 12.3486 10.4413 11.979C10.0915 11.8866 9.7252 11.8932 9.3853 12.012C8.8738 12.1869 8.194 12.6423 8.1214 13.8468Z" fill="#EE1C25"/>
<path d="M19.3711 11.1903C19.9616 11.1903 20.4403 10.7116 20.4403 10.1211C20.4403 9.53058 19.9616 9.05188 19.3711 9.05188C18.7806 9.05188 18.3019 9.53058 18.3019 10.1211C18.3019 10.7116 18.7806 11.1903 19.3711 11.1903Z" fill="#EE1C25"/>
<path d="M17.5264 13.7907H21.1861C21.1861 13.7907 21.2554 12.2925 19.8463 11.9229C19.4965 11.8305 19.1302 11.8371 18.7903 11.9559C18.2788 12.1308 17.599 12.5862 17.5264 13.7907Z" fill="#EE1C25"/>
<path d="M19.3711 17.6253C19.9616 17.6253 20.4403 17.1466 20.4403 16.5561C20.4403 15.9656 19.9616 15.4869 19.3711 15.4869C18.7806 15.4869 18.3019 15.9656 18.3019 16.5561C18.3019 17.1466 18.7806 17.6253 19.3711 17.6253Z" fill="#EE1C25"/>
<path d="M17.5264 20.2257H21.1861C21.1861 20.2257 21.2554 18.7275 19.8463 18.3579C19.4965 18.2655 19.1302 18.2721 18.7903 18.3909C18.2788 18.5658 17.599 19.0212 17.5264 20.2257Z" fill="#EE1C25"/>
<path d="M9.9661 17.6748C10.5566 17.6748 11.0353 17.1961 11.0353 16.6056C11.0353 16.0151 10.5566 15.5364 9.9661 15.5364C9.37559 15.5364 8.8969 16.0151 8.8969 16.6056C8.8969 17.1961 9.37559 17.6748 9.9661 17.6748Z" fill="#EE1C25"/>
<path d="M8.1214 20.2752H11.7811C11.7811 20.2752 11.8504 18.777 10.4413 18.4074C10.0915 18.315 9.7252 18.3216 9.3853 18.4404C8.8738 18.6153 8.194 19.0707 8.1214 20.2752Z" fill="#EE1C25"/>
<path d="M24.595 18.8529C23.6776 18.8529 22.8328 18.3942 22.3279 17.6286C22.2916 17.5725 22.3081 17.4966 22.3642 17.4603C22.4203 17.424 22.4962 17.4405 22.5325 17.4966C22.9912 18.1929 23.7601 18.612 24.595 18.612C25.4266 18.612 26.1988 18.1962 26.6542 17.4966C26.6905 17.4405 26.7664 17.424 26.8225 17.4603C26.8786 17.4966 26.8951 17.5725 26.8588 17.6286C26.3572 18.3942 25.5124 18.8529 24.595 18.8529ZM27.0766 15.5892C27.0205 15.5892 26.9974 15.5826 26.9842 15.5298C26.7037 14.4441 25.7236 13.6851 24.5983 13.6851C23.473 13.6851 22.4929 14.4441 22.2124 15.5298C22.1959 15.5958 22.1266 15.6189 22.0606 15.6024C21.9946 15.5859 21.9583 15.5364 21.9748 15.4704C22.2817 14.2758 23.3608 13.4409 24.5983 13.4409C25.8358 13.4409 26.9149 14.2758 27.2218 15.4704C27.2383 15.5364 27.1855 15.5628 27.1195 15.5793C27.1063 15.5793 27.0865 15.5892 27.0766 15.5892V15.5892Z" fill="#EE1C25"/>
<path d="M22.1167 17.8068C21.7933 17.8068 21.526 17.5428 21.526 17.2161V15.9588C21.526 15.6354 21.79 15.3681 22.1167 15.3681C22.4434 15.3681 22.7074 15.6321 22.7074 15.9588V17.2161C22.7041 17.5428 22.4401 17.8068 22.1167 17.8068ZM22.1167 15.6189C21.9286 15.6189 21.7735 15.774 21.7735 15.9621V17.2194C21.7735 17.4075 21.9286 17.5626 22.1167 17.5626C22.3048 17.5626 22.4599 17.4075 22.4599 17.2194V15.9621C22.4599 15.774 22.3048 15.6189 22.1167 15.6189V15.6189Z" fill="#EE1C25"/>
<path d="M27.5419 17.3415C27.4726 17.3415 27.4198 17.2854 27.4198 17.2194V14.883C27.4198 14.1768 27.1261 13.5102 26.5948 13.0086C26.0602 12.507 25.3507 12.2298 24.595 12.2298C23.0374 12.2298 21.7702 13.4211 21.7702 14.883V17.2194C21.7702 17.2887 21.7141 17.3415 21.6481 17.3415C21.5821 17.3415 21.526 17.2854 21.526 17.2194V14.883C21.526 13.2858 22.9021 11.9856 24.595 11.9856C25.4134 11.9856 26.1823 12.2859 26.7631 12.8337C27.3439 13.3815 27.664 14.1108 27.664 14.8863V17.2227C27.664 17.2854 27.6112 17.3415 27.5419 17.3415V17.3415Z" fill="#EE1C25"/>
<path d="M21.1729 21.1299H6.1975C5.6068 21.1299 5.125 20.6481 5.125 20.0574V9.04858C5.125 8.45458 5.6068 7.97278 6.1975 7.97278H23.1199C23.7106 7.97278 24.1924 8.45458 24.1924 9.04858V12.1044C24.1924 12.1737 24.1363 12.2265 24.0703 12.2265C24.0043 12.2265 23.9482 12.1704 23.9482 12.1044V9.04858C23.9482 8.58988 23.5753 8.22028 23.1199 8.22028H6.1975C5.7421 8.22028 5.3692 8.59318 5.3692 9.04858V20.0574C5.3692 20.5128 5.7421 20.8857 6.1975 20.8857H21.1729C21.2422 20.8857 21.295 20.9418 21.295 21.0078C21.295 21.0738 21.2422 21.1299 21.1729 21.1299V21.1299Z" fill="#EE1C25"/>
<path d="M14.662 21.1068C14.5927 21.1068 14.5399 21.0507 14.5399 20.9847V8.12131C14.5399 8.05531 14.596 7.99921 14.662 7.99921C14.728 7.99921 14.7841 8.05531 14.7841 8.12131V20.9847C14.7841 21.0507 14.728 21.1068 14.662 21.1068Z" fill="#EE1C25"/>
<path d="M21.6151 14.6751H5.2471C5.1778 14.6751 5.1547 14.619 5.1547 14.553C5.1547 14.487 5.1811 14.4309 5.2471 14.4309H21.6151C21.6844 14.4309 21.7372 14.487 21.7372 14.553C21.7372 14.619 21.6811 14.6751 21.6151 14.6751ZM9.9661 11.352C9.316 11.352 8.7913 10.824 8.7913 10.1772C8.7913 9.53039 9.3193 9.00239 9.9661 9.00239C10.6129 9.00239 11.1409 9.53039 11.1409 10.1772C11.1409 10.824 10.6129 11.352 9.9661 11.352ZM9.9661 9.24329C9.4513 9.24329 9.0355 9.66239 9.0355 10.1739C9.0355 10.6887 9.4546 11.1045 9.9661 11.1045C10.4776 11.1045 10.8967 10.6854 10.8967 10.1739C10.8967 9.66239 10.4776 9.24329 9.9661 9.24329ZM11.7811 13.8468C11.7118 13.8468 11.659 13.7907 11.659 13.7247C11.659 12.7908 10.9 12.0318 9.9661 12.0318C9.0322 12.0318 8.2732 12.7908 8.2732 13.7247C8.2732 13.794 8.2171 13.8468 8.1511 13.8468C8.0851 13.8468 8.029 13.7907 8.029 13.7247C8.029 12.6555 8.9002 11.7876 9.9661 11.7876C11.0353 11.7876 11.9032 12.6588 11.9032 13.7247C11.9032 13.7907 11.8504 13.8468 11.7811 13.8468ZM9.9661 17.7771C9.316 17.7771 8.7913 17.2491 8.7913 16.6023C8.7913 15.9522 9.3193 15.4275 9.9661 15.4275C10.6129 15.4275 11.1409 15.9555 11.1409 16.6023C11.1409 17.2491 10.6129 17.7771 9.9661 17.7771ZM9.9661 15.6717C9.4513 15.6717 9.0355 16.0908 9.0355 16.6023C9.0355 17.1171 9.4546 17.5329 9.9661 17.5329C10.4776 17.5329 10.8967 17.1138 10.8967 16.6023C10.8967 16.0875 10.4776 15.6717 9.9661 15.6717V15.6717ZM11.7811 20.2719C11.7118 20.2719 11.659 20.2158 11.659 20.1498C11.659 19.2159 10.9 18.4569 9.9661 18.4569C9.0322 18.4569 8.2732 19.2159 8.2732 20.1498C8.2732 20.2191 8.2171 20.2719 8.1511 20.2719C8.0851 20.2719 8.029 20.2158 8.029 20.1498C8.029 19.0806 8.9002 18.2127 9.9661 18.2127C11.0353 18.2127 11.9032 19.0839 11.9032 20.1498C11.9032 20.2158 11.8504 20.2719 11.7811 20.2719ZM19.3579 11.2959C18.7078 11.2959 18.1831 10.7679 18.1831 10.1211C18.1831 9.47429 18.7111 8.94629 19.3579 8.94629C20.0047 8.94629 20.5327 9.47429 20.5327 10.1211C20.5327 10.7679 20.0047 11.2959 19.3579 11.2959ZM19.3579 9.18719C18.8431 9.18719 18.4273 9.60629 18.4273 10.1178C18.4273 10.6293 18.8464 11.0484 19.3579 11.0484C19.8727 11.0484 20.2885 10.6293 20.2885 10.1178C20.2885 9.60629 19.8694 9.18719 19.3579 9.18719ZM21.1729 13.7907C21.1036 13.7907 21.0508 13.7346 21.0508 13.6686C21.0508 12.7347 20.2918 11.9757 19.3579 11.9757C18.424 11.9757 17.665 12.7347 17.665 13.6686C17.665 13.7379 17.6089 13.7907 17.5429 13.7907C17.4769 13.7907 17.4208 13.7346 17.4208 13.6686C17.4208 12.5994 18.292 11.7315 19.3579 11.7315C20.4271 11.7315 21.295 12.6027 21.295 13.6686C21.295 13.7346 21.2422 13.7907 21.1729 13.7907ZM19.3579 17.721C18.7078 17.721 18.1831 17.193 18.1831 16.5462C18.1831 15.8961 18.7111 15.3714 19.3579 15.3714C20.0047 15.3714 20.5327 15.8994 20.5327 16.5462C20.5327 17.193 20.0047 17.721 19.3579 17.721ZM19.3579 15.6156C18.8431 15.6156 18.4273 16.0347 18.4273 16.5462C18.4273 17.061 18.8464 17.4768 19.3579 17.4768C19.8727 17.4768 20.2885 17.0577 20.2885 16.5462C20.2885 16.0314 19.8694 15.6156 19.3579 15.6156V15.6156ZM21.1729 20.2158C21.1036 20.2158 21.0508 20.1597 21.0508 20.0937C21.0508 19.1598 20.2918 18.4008 19.3579 18.4008C18.424 18.4008 17.665 19.1598 17.665 20.0937C17.665 20.163 17.6089 20.2158 17.5429 20.2158C17.4769 20.2158 17.4208 20.1597 17.4208 20.0937C17.4208 19.0245 18.292 18.1566 19.3579 18.1566C20.4271 18.1566 21.295 19.0278 21.295 20.0937C21.295 20.163 21.2422 20.2158 21.1729 20.2158ZM16.8367 22.7337H12.484C12.4147 22.7337 12.3619 22.6776 12.3619 22.6116V21.0078C12.3619 20.9385 12.418 20.8857 12.484 20.8857H16.8367C16.906 20.8857 16.9588 20.9418 16.9588 21.0078V22.6116C16.9588 22.6809 16.906 22.7337 16.8367 22.7337ZM12.6061 22.4895H16.7146V21.1299H12.6061V22.4895Z" fill="#EE1C25"/>
<path d="M17.9686 22.7337H11.3521C11.2828 22.7337 11.23 22.6776 11.23 22.6116C11.23 22.5456 11.2861 22.4895 11.3521 22.4895H17.9686C18.0379 22.4895 18.0907 22.5456 18.0907 22.6116C18.0907 22.6776 18.0379 22.7337 17.9686 22.7337Z" fill="#EE1C25"/>
<defs>
<linearGradient id="paint0_linear_8_466" x1="-8.22082e-08" y1="14.6744" x2="29" y2="14.6744" gradientUnits="userSpaceOnUse">
<stop stop-color="#EE1C25"/>
<stop offset="1" stop-color="#EE1C25"/>
</linearGradient>
</defs>
</svg>
