<svg width="28" height="27" viewBox="0 0 28 27" fill="none" xmlns="http://www.w3.org/2000/svg">
<rect width="28" height="27" rx="13.5" fill="url(#paint0_linear_8_467)"/>
<path d="M8.80606 10.5914C8.34681 10.5914 7.97491 10.9149 7.97491 11.3128C7.97491 11.7109 8.34681 12.0345 8.80606 12.0345C9.26329 12.0345 9.63523 11.7108 9.63523 11.3128C9.63523 10.9149 9.26329 10.5914 8.80606 10.5914Z" fill="white"/>
<path d="M23.0354 12.2353C22.1263 8.95216 21.1607 7.20735 19.2347 6.71227C18.8151 6.60462 18.4579 6.5625 18.1283 6.5625C16.9424 6.5625 16.1114 7.10738 13.9998 7.10738C11.8869 7.10738 11.0564 6.56257 9.87216 6.5625C9.54281 6.5625 9.18625 6.60462 8.76696 6.71227C6.839 7.20735 5.87336 8.95216 4.9659 12.2353C4.05578 15.5184 4.22108 17.8894 5.29586 18.3319C5.47079 18.4041 5.64954 18.4375 5.83099 18.4375C6.76316 18.4375 7.77056 17.5529 8.73822 16.5061C9.84054 15.3147 10.1181 15.2832 13.4767 15.2832H14.5227C17.8806 15.2832 18.1591 15.3146 19.2614 16.5061C20.2293 17.5528 21.2367 18.4359 22.1689 18.4359C22.3505 18.4359 22.5291 18.4033 22.7041 18.3311C23.7786 17.8886 23.9439 15.5184 23.0354 12.2353ZM8.81083 12.7833C7.88099 12.7833 7.125 12.1243 7.125 11.3129C7.125 10.5024 7.88099 9.84174 8.81083 9.84174C9.74132 9.84174 10.4973 10.5024 10.4973 11.3129C10.4973 12.1243 9.74136 12.7833 8.81083 12.7833ZM16.2376 12.0599C15.7625 12.0599 15.375 11.7252 15.375 11.3137C15.375 10.9022 15.7625 10.5677 16.2376 10.5677C16.7159 10.5677 17.1034 10.9022 17.1034 11.3137C17.1034 11.7252 16.7159 12.0599 16.2376 12.0599V12.0599ZM18.1245 13.6875C17.6493 13.6875 17.2628 13.3553 17.2628 12.9447C17.2628 12.5307 17.6493 12.1986 18.1245 12.1986C18.6034 12.1986 18.9902 12.5307 18.9902 12.9447C18.9903 13.3553 18.6034 13.6875 18.1245 13.6875ZM18.1245 10.4289C17.6493 10.4289 17.2628 10.0952 17.2628 9.68366C17.2628 9.27197 17.6493 8.9375 18.1245 8.9375C18.6034 8.9375 18.9902 9.272 18.9902 9.68366C18.9903 10.0952 18.6034 10.4289 18.1245 10.4289ZM20.0133 12.0599C19.5362 12.0599 19.1496 11.7252 19.1496 11.3137C19.1496 10.9022 19.5361 10.5677 20.0133 10.5677C20.4885 10.5677 20.875 10.9022 20.875 11.3137C20.875 11.7252 20.4885 12.0599 20.0133 12.0599V12.0599Z" fill="white"/>
<defs>
<linearGradient id="paint0_linear_8_467" x1="-7.93734e-08" y1="13.1861" x2="28" y2="13.1861" gradientUnits="userSpaceOnUse">
<stop stop-color="#EE1C25"/>
<stop offset="1" stop-color="#EE1C25"/>
</linearGradient>
</defs>
</svg>
